<?xml version="1.0" encoding="UTF-8" standalone="no"?><svg xmlns="http://www.w3.org/2000/svg" xmlns:xlink="http://www.w3.org/1999/xlink" contentScriptType="application/ecmascript" contentStyleType="text/css" height="371px" preserveAspectRatio="none" style="width:352px;height:371px;" version="1.1" viewBox="0 0 352 371" width="352px" zoomAndPan="magnify"><defs><filter height="300%" id="fh82die" width="300%" x="-1" y="-1"><feGaussianBlur result="blurOut" stdDeviation="2.0"/><feColorMatrix in="blurOut" result="blurOut2" type="matrix" values="0 0 0 0 0 0 0 0 0 0 0 0 0 0 0 0 0 0 .4 0"/><feOffset dx="4.0" dy="4.0" in="blurOut2" result="blurOut3"/><feBlend in="SourceGraphic" in2="blurOut3" mode="normal"/></filter></defs><g><!--class app_project--><rect fill="#FEFECE" filter="url(#fh82die)" height="138.6855" style="stroke: #A80036; stroke-width: 1.5;" width="157" x="0" y="16.1406"/><ellipse cx="39.75" cy="32.1406" fill="#ADD1B2" rx="11" ry="11" style="stroke: #A80036; stroke-width: 1.0;"/><path d="M43.8643,38.1406 L36.1445,38.1406 L36.1445,25.7476 L43.8643,25.7476 L43.8643,27.9058 L38.5933,27.9058 L38.5933,30.5786 L43.3662,30.5786 L43.3662,32.7368 L38.5933,32.7368 L38.5933,35.9824 L43.8643,35.9824 Z "/><text fill="#000000" font-family="sans-serif" font-size="12" lengthAdjust="spacingAndGlyphs" textLength="70" x="59.25" y="36.6758">app_project</text><line style="stroke: #A80036; stroke-width: 1.5;" x1="1" x2="156" y1="48.1406" y2="48.1406"/><ellipse cx="11" cy="60.1182" fill="#000000" rx="3" ry="3" style="stroke: #000000; stroke-width: 1.0;"/><text fill="#000000" font-family="sans-serif" font-size="11" lengthAdjust="spacingAndGlyphs" textLength="98" x="20" y="62.7754">"id" : "varchar(64)"</text><text fill="#000000" font-family="sans-serif" font-size="11" lengthAdjust="spacingAndGlyphs" textLength="75" x="20" y="75.7305">"name" : "text"</text><text fill="#000000" font-family="sans-serif" font-size="11" lengthAdjust="spacingAndGlyphs" textLength="107" x="20" y="88.6855">"description" : "text"</text><text fill="#000000" font-family="sans-serif" font-size="11" lengthAdjust="spacingAndGlyphs" textLength="108" x="20" y="101.6406">"status_type" : "text"</text><text fill="#000000" font-family="sans-serif" font-size="11" lengthAdjust="spacingAndGlyphs" textLength="128" x="20" y="114.5957">"user_id" : "varchar(64)"</text><text fill="#000000" font-family="sans-serif" font-size="11" lengthAdjust="spacingAndGlyphs" textLength="127" x="20" y="127.5508">"created" : "timestampz"</text><text fill="#000000" font-family="sans-serif" font-size="11" lengthAdjust="spacingAndGlyphs" textLength="131" x="20" y="140.5059">"updated" : "timestampz"</text><line style="stroke: #A80036; stroke-width: 1.5;" x1="1" x2="156" y1="146.8262" y2="146.8262"/><!--class app_task--><rect fill="#FEFECE" filter="url(#fh82die)" height="151.6406" style="stroke: #A80036; stroke-width: 1.5;" width="168" x="175.5" y="9.6406"/><ellipse cx="228.75" cy="25.6406" fill="#ADD1B2" rx="11" ry="11" style="stroke: #A80036; stroke-width: 1.0;"/><path d="M232.8643,31.6406 L225.1445,31.6406 L225.1445,19.2476 L232.8643,19.2476 L232.8643,21.4058 L227.5933,21.4058 L227.5933,24.0786 L232.3662,24.0786 L232.3662,26.2368 L227.5933,26.2368 L227.5933,29.4824 L232.8643,29.4824 Z "/><text fill="#000000" font-family="sans-serif" font-size="12" lengthAdjust="spacingAndGlyphs" textLength="53" x="249.25" y="30.1758">app_task</text><line style="stroke: #A80036; stroke-width: 1.5;" x1="176.5" x2="342.5" y1="41.6406" y2="41.6406"/><ellipse cx="186.5" cy="53.6182" fill="#000000" rx="3" ry="3" style="stroke: #000000; stroke-width: 1.0;"/><text fill="#000000" font-family="sans-serif" font-size="11" lengthAdjust="spacingAndGlyphs" textLength="98" x="195.5" y="56.2754">"id" : "varchar(64)"</text><text fill="#000000" font-family="sans-serif" font-size="11" lengthAdjust="spacingAndGlyphs" textLength="75" x="195.5" y="69.2305">"name" : "text"</text><text fill="#000000" font-family="sans-serif" font-size="11" lengthAdjust="spacingAndGlyphs" textLength="107" x="195.5" y="82.1855">"description" : "text"</text><text fill="#000000" font-family="sans-serif" font-size="11" lengthAdjust="spacingAndGlyphs" textLength="108" x="195.5" y="95.1406">"status_type" : "text"</text><text fill="#000000" font-family="sans-serif" font-size="11" lengthAdjust="spacingAndGlyphs" textLength="142" x="195.5" y="108.0957">"project_id" : "varchar(64)"</text><text fill="#000000" font-family="sans-serif" font-size="11" lengthAdjust="spacingAndGlyphs" textLength="128" x="195.5" y="121.0508">"user_id" : "varchar(64)"</text><text fill="#000000" font-family="sans-serif" font-size="11" lengthAdjust="spacingAndGlyphs" textLength="127" x="195.5" y="134.0059">"created" : "timestampz"</text><text fill="#000000" font-family="sans-serif" font-size="11" lengthAdjust="spacingAndGlyphs" textLength="131" x="195.5" y="146.9609">"updated" : "timestampz"</text><line style="stroke: #A80036; stroke-width: 1.5;" x1="176.5" x2="342.5" y1="153.2813" y2="153.2813"/><!--class app_user--><rect fill="#FEFECE" filter="url(#fh82die)" height="164.5957" style="stroke: #A80036; stroke-width: 1.5;" width="157" x="0" y="197.6406"/><ellipse cx="47.25" cy="213.6406" fill="#ADD1B2" rx="11" ry="11" style="stroke: #A80036; stroke-width: 1.0;"/><path d="M51.3643,219.6406 L43.6445,219.6406 L43.6445,207.2476 L51.3643,207.2476 L51.3643,209.4058 L46.0933,209.4058 L46.0933,212.0786 L50.8662,212.0786 L50.8662,214.2368 L46.0933,214.2368 L46.0933,217.4824 L51.3643,217.4824 Z "/><text fill="#000000" font-family="sans-serif" font-size="12" lengthAdjust="spacingAndGlyphs" textLength="54" x="67.75" y="218.1758">app_user</text><line style="stroke: #A80036; stroke-width: 1.5;" x1="1" x2="156" y1="229.6406" y2="229.6406"/><ellipse cx="11" cy="241.6182" fill="#000000" rx="3" ry="3" style="stroke: #000000; stroke-width: 1.0;"/><text fill="#000000" font-family="sans-serif" font-size="11" lengthAdjust="spacingAndGlyphs" textLength="98" x="20" y="244.2754">"id" : "varchar(64)"</text><text fill="#000000" font-family="sans-serif" font-size="11" lengthAdjust="spacingAndGlyphs" textLength="99" x="20" y="257.2305">"username" : "text"</text><text fill="#000000" font-family="sans-serif" font-size="11" lengthAdjust="spacingAndGlyphs" textLength="74" x="20" y="270.1855">"email" : "text"</text><text fill="#000000" font-family="sans-serif" font-size="11" lengthAdjust="spacingAndGlyphs" textLength="130" x="20" y="283.1406">"password_рash" : "text"</text><text fill="#000000" font-family="sans-serif" font-size="11" lengthAdjust="spacingAndGlyphs" textLength="103" x="20" y="296.0957">"first_name" : "text"</text><text fill="#000000" font-family="sans-serif" font-size="11" lengthAdjust="spacingAndGlyphs" textLength="100" x="20" y="309.0508">"last_name" : "text"</text><text fill="#000000" font-family="sans-serif" font-size="11" lengthAdjust="spacingAndGlyphs" textLength="117" x="20" y="322.0059">"middle_name" : "text"</text><text fill="#000000" font-family="sans-serif" font-size="11" lengthAdjust="spacingAndGlyphs" textLength="127" x="20" y="334.9609">"created" : "timestampz"</text><text fill="#000000" font-family="sans-serif" font-size="11" lengthAdjust="spacingAndGlyphs" textLength="131" x="20" y="347.916">"updated" : "timestampz"</text><line style="stroke: #A80036; stroke-width: 1.5;" x1="1" x2="156" y1="354.2363" y2="354.2363"/><!--class app_role--><rect fill="#FEFECE" filter="url(#fh82die)" height="112.7754" style="stroke: #A80036; stroke-width: 1.5;" width="157" x="175" y="223.6406"/><ellipse cx="223.75" cy="239.6406" fill="#ADD1B2" rx="11" ry="11" style="stroke: #A80036; stroke-width: 1.0;"/><path d="M227.8643,245.6406 L220.1445,245.6406 L220.1445,233.2476 L227.8643,233.2476 L227.8643,235.4058 L222.5933,235.4058 L222.5933,238.0786 L227.3662,238.0786 L227.3662,240.2368 L222.5933,240.2368 L222.5933,243.4824 L227.8643,243.4824 Z "/><text fill="#000000" font-family="sans-serif" font-size="12" lengthAdjust="spacingAndGlyphs" textLength="51" x="244.25" y="244.1758">app_role</text><line style="stroke: #A80036; stroke-width: 1.5;" x1="176" x2="331" y1="255.6406" y2="255.6406"/><ellipse cx="186" cy="267.6182" fill="#000000" rx="3" ry="3" style="stroke: #000000; stroke-width: 1.0;"/><text fill="#000000" font-family="sans-serif" font-size="11" lengthAdjust="spacingAndGlyphs" textLength="98" x="195" y="270.2754">"id" : "varchar(64)"</text><text fill="#000000" font-family="sans-serif" font-size="11" lengthAdjust="spacingAndGlyphs" textLength="128" x="195" y="283.2305">"user_id" : "varchar(64)"</text><text fill="#000000" font-family="sans-serif" font-size="11" lengthAdjust="spacingAndGlyphs" textLength="99" x="195" y="296.1855">"user_type" : "text"</text><text fill="#000000" font-family="sans-serif" font-size="11" lengthAdjust="spacingAndGlyphs" textLength="127" x="195" y="309.1406">"created" : "timestampz"</text><text fill="#000000" font-family="sans-serif" font-size="11" lengthAdjust="spacingAndGlyphs" textLength="131" x="195" y="322.0957">"updated" : "timestampz"</text><line style="stroke: #A80036; stroke-width: 1.5;" x1="176" x2="331" y1="328.416" y2="328.416"/><path d="M157.334,85.6406 C163.3203,85.6406 169.3066,85.6406 175.2929,85.6406 " fill="none" style="stroke: #A80036; stroke-width: 1.0;"/><path d="M78.5,155.3223 C78.5,168.9271 78.5,183.3345 78.5,197.3256 " fill="none" style="stroke: #A80036; stroke-width: 1.0;"/><path d="M157.1133,280.1406 C163.0119,280.1406 168.9106,280.1406 174.8093,280.1406 " fill="none" style="stroke: #A80036; stroke-width: 1.0;"/></g></svg>