<?xml version="1.0" encoding="UTF-8" standalone="no"?><svg xmlns="http://www.w3.org/2000/svg" xmlns:xlink="http://www.w3.org/1999/xlink" contentScriptType="application/ecmascript" contentStyleType="text/css" height="546px" preserveAspectRatio="none" style="width:456px;height:546px;" version="1.1" viewBox="0 0 456 546" width="456px" zoomAndPan="magnify"><defs><filter height="300%" id="fcoqk6y" width="300%" x="-1" y="-1"><feGaussianBlur result="blurOut" stdDeviation="2.0"/><feColorMatrix in="blurOut" result="blurOut2" type="matrix" values="0 0 0 0 0 0 0 0 0 0 0 0 0 0 0 0 0 0 .4 0"/><feOffset dx="4.0" dy="4.0" in="blurOut2" result="blurOut3"/><feBlend in="SourceGraphic" in2="blurOut3" mode="normal"/></filter></defs><g><!--class app_project--><rect fill="#FEFECE" filter="url(#fcoqk6y)" height="138.6855" style="stroke: #A80036; stroke-width: 1.5;" width="195" x="0" y="197.6406"/><ellipse cx="71.25" cy="213.6406" fill="#ADD1B2" rx="11" ry="11" style="stroke: #A80036; stroke-width: 1.0;"/><path d="M75.3643,219.6406 L67.6445,219.6406 L67.6445,207.2476 L75.3643,207.2476 L75.3643,209.4058 L70.0933,209.4058 L70.0933,212.0786 L74.8662,212.0786 L74.8662,214.2368 L70.0933,214.2368 L70.0933,217.4824 L75.3643,217.4824 Z "/><text fill="#000000" font-family="sans-serif" font-size="12" lengthAdjust="spacingAndGlyphs" textLength="44" x="91.75" y="218.1758">Проект</text><line style="stroke: #A80036; stroke-width: 1.5;" x1="1" x2="194" y1="229.6406" y2="229.6406"/><ellipse cx="11" cy="241.6182" fill="#000000" rx="3" ry="3" style="stroke: #000000; stroke-width: 1.0;"/><text fill="#000000" font-family="sans-serif" font-size="11" lengthAdjust="spacingAndGlyphs" textLength="154" x="20" y="244.2754">"Уникальный код" : "Строка"</text><line style="stroke: #A80036; stroke-width: 1.0;" x1="1" x2="194" y1="250.5957" y2="250.5957"/><text fill="#000000" font-family="sans-serif" font-size="11" lengthAdjust="spacingAndGlyphs" textLength="115" x="6" y="265.2305">"Название" : "Строка"</text><text fill="#000000" font-family="sans-serif" font-size="11" lengthAdjust="spacingAndGlyphs" textLength="119" x="6" y="278.1855">"Описание" : "Строка"</text><text fill="#000000" font-family="sans-serif" font-size="11" lengthAdjust="spacingAndGlyphs" textLength="100" x="6" y="291.1406">"Статус" : "Строка"</text><text fill="#000000" font-family="sans-serif" font-size="11" lengthAdjust="spacingAndGlyphs" textLength="161" x="6" y="304.0957">"Код пользователя" : "Строка"</text><text fill="#000000" font-family="sans-serif" font-size="11" lengthAdjust="spacingAndGlyphs" textLength="168" x="6" y="317.0508">"Дата создания" : "Дата/Время"</text><text fill="#000000" font-family="sans-serif" font-size="11" lengthAdjust="spacingAndGlyphs" textLength="183" x="6" y="330.0059">"Дата обновления" : "Дата/Время"</text><!--class app_task--><rect fill="#FEFECE" filter="url(#fcoqk6y)" height="151.6406" style="stroke: #A80036; stroke-width: 1.5;" width="195" x="63" y="9.6406"/><ellipse cx="135.25" cy="25.6406" fill="#ADD1B2" rx="11" ry="11" style="stroke: #A80036; stroke-width: 1.0;"/><path d="M139.3643,31.6406 L131.6445,31.6406 L131.6445,19.2476 L139.3643,19.2476 L139.3643,21.4058 L134.0933,21.4058 L134.0933,24.0786 L138.8662,24.0786 L138.8662,26.2368 L134.0933,26.2368 L134.0933,29.4824 L139.3643,29.4824 Z "/><text fill="#000000" font-family="sans-serif" font-size="12" lengthAdjust="spacingAndGlyphs" textLength="42" x="155.75" y="30.1758">Задачи</text><line style="stroke: #A80036; stroke-width: 1.5;" x1="64" x2="257" y1="41.6406" y2="41.6406"/><ellipse cx="74" cy="53.6182" fill="#000000" rx="3" ry="3" style="stroke: #000000; stroke-width: 1.0;"/><text fill="#000000" font-family="sans-serif" font-size="11" lengthAdjust="spacingAndGlyphs" textLength="154" x="83" y="56.2754">"Уникальный код" : "Строка"</text><line style="stroke: #A80036; stroke-width: 1.0;" x1="64" x2="257" y1="62.5957" y2="62.5957"/><text fill="#000000" font-family="sans-serif" font-size="11" lengthAdjust="spacingAndGlyphs" textLength="115" x="69" y="77.2305">"Название" : "Строка"</text><text fill="#000000" font-family="sans-serif" font-size="11" lengthAdjust="spacingAndGlyphs" textLength="119" x="69" y="90.1855">"Описание" : "Строка"</text><text fill="#000000" font-family="sans-serif" font-size="11" lengthAdjust="spacingAndGlyphs" textLength="100" x="69" y="103.1406">"Статус" : "Строка"</text><text fill="#000000" font-family="sans-serif" font-size="11" lengthAdjust="spacingAndGlyphs" textLength="132" x="69" y="116.0957">"Код проекта" : "Строка"</text><text fill="#000000" font-family="sans-serif" font-size="11" lengthAdjust="spacingAndGlyphs" textLength="161" x="69" y="129.0508">"Код пользователя" : "Строка"</text><text fill="#000000" font-family="sans-serif" font-size="11" lengthAdjust="spacingAndGlyphs" textLength="168" x="69" y="142.0059">"Дата создания" : "Дата/Время"</text><text fill="#000000" font-family="sans-serif" font-size="11" lengthAdjust="spacingAndGlyphs" textLength="183" x="69" y="154.9609">"Дата обновления" : "Дата/Время"</text><!--class app_user--><rect fill="#FEFECE" filter="url(#fcoqk6y)" height="164.5957" style="stroke: #A80036; stroke-width: 1.5;" width="195" x="126" y="372.6406"/><ellipse cx="178.75" cy="388.6406" fill="#ADD1B2" rx="11" ry="11" style="stroke: #A80036; stroke-width: 1.0;"/><path d="M182.8643,394.6406 L175.1445,394.6406 L175.1445,382.2476 L182.8643,382.2476 L182.8643,384.4058 L177.5933,384.4058 L177.5933,387.0786 L182.3662,387.0786 L182.3662,389.2368 L177.5933,389.2368 L177.5933,392.4824 L182.8643,392.4824 Z "/><text fill="#000000" font-family="sans-serif" font-size="12" lengthAdjust="spacingAndGlyphs" textLength="81" x="199.25" y="393.1758">Пользователь</text><line style="stroke: #A80036; stroke-width: 1.5;" x1="127" x2="320" y1="404.6406" y2="404.6406"/><ellipse cx="137" cy="416.6182" fill="#000000" rx="3" ry="3" style="stroke: #000000; stroke-width: 1.0;"/><text fill="#000000" font-family="sans-serif" font-size="11" lengthAdjust="spacingAndGlyphs" textLength="154" x="146" y="419.2754">"Уникальный код" : "Строка"</text><line style="stroke: #A80036; stroke-width: 1.0;" x1="127" x2="320" y1="425.5957" y2="425.5957"/><text fill="#000000" font-family="sans-serif" font-size="11" lengthAdjust="spacingAndGlyphs" textLength="162" x="132" y="440.2305">"Имя пользователя" : "Строка"</text><text fill="#000000" font-family="sans-serif" font-size="11" lengthAdjust="spacingAndGlyphs" textLength="98" x="132" y="453.1855">"E-mail" : "Строка"</text><text fill="#000000" font-family="sans-serif" font-size="11" lengthAdjust="spacingAndGlyphs" textLength="128" x="132" y="466.1406">"Хеш пароля" : "Строка"</text><text fill="#000000" font-family="sans-serif" font-size="11" lengthAdjust="spacingAndGlyphs" textLength="86" x="132" y="479.0957">"Имя" : "Строка"</text><text fill="#000000" font-family="sans-serif" font-size="11" lengthAdjust="spacingAndGlyphs" textLength="112" x="132" y="492.0508">"Фамилия" : "Строка"</text><text fill="#000000" font-family="sans-serif" font-size="11" lengthAdjust="spacingAndGlyphs" textLength="114" x="132" y="505.0059">"Отчество" : "Строка"</text><text fill="#000000" font-family="sans-serif" font-size="11" lengthAdjust="spacingAndGlyphs" textLength="168" x="132" y="517.9609">"Дата создания" : "Дата/Время"</text><text fill="#000000" font-family="sans-serif" font-size="11" lengthAdjust="spacingAndGlyphs" textLength="183" x="132" y="530.916">"Дата обновления" : "Дата/Время"</text><!--class app_role--><rect fill="#FEFECE" filter="url(#fcoqk6y)" height="112.7754" style="stroke: #A80036; stroke-width: 1.5;" width="195" x="252" y="210.6406"/><ellipse cx="331.75" cy="226.6406" fill="#ADD1B2" rx="11" ry="11" style="stroke: #A80036; stroke-width: 1.0;"/><path d="M335.8643,232.6406 L328.1445,232.6406 L328.1445,220.2476 L335.8643,220.2476 L335.8643,222.4058 L330.5933,222.4058 L330.5933,225.0786 L335.3662,225.0786 L335.3662,227.2368 L330.5933,227.2368 L330.5933,230.4824 L335.8643,230.4824 Z "/><text fill="#000000" font-family="sans-serif" font-size="12" lengthAdjust="spacingAndGlyphs" textLength="27" x="352.25" y="231.1758">Роль</text><line style="stroke: #A80036; stroke-width: 1.5;" x1="253" x2="446" y1="242.6406" y2="242.6406"/><ellipse cx="263" cy="254.6182" fill="#000000" rx="3" ry="3" style="stroke: #000000; stroke-width: 1.0;"/><text fill="#000000" font-family="sans-serif" font-size="11" lengthAdjust="spacingAndGlyphs" textLength="154" x="272" y="257.2754">"Уникальный код" : "Строка"</text><line style="stroke: #A80036; stroke-width: 1.0;" x1="253" x2="446" y1="263.5957" y2="263.5957"/><text fill="#000000" font-family="sans-serif" font-size="11" lengthAdjust="spacingAndGlyphs" textLength="161" x="258" y="278.2305">"Код пользователя" : "Строка"</text><text fill="#000000" font-family="sans-serif" font-size="11" lengthAdjust="spacingAndGlyphs" textLength="115" x="258" y="291.1855">"Тип роли" : "Строка"</text><text fill="#000000" font-family="sans-serif" font-size="11" lengthAdjust="spacingAndGlyphs" textLength="168" x="258" y="304.1406">"Дата создания" : "Дата/Время"</text><text fill="#000000" font-family="sans-serif" font-size="11" lengthAdjust="spacingAndGlyphs" textLength="183" x="258" y="317.0957">"Дата обновления" : "Дата/Время"</text><path d="M144.0598,336.8717 C151.9113,348.4621 160.1291,360.5931 168.1773,372.4737 " fill="none" style="stroke: #A80036; stroke-width: 1.0;"/><path d="M134.1474,161.7247 C130,173.5413 125.7304,185.7065 121.6365,197.3708 " fill="none" style="stroke: #A80036; stroke-width: 1.0;"/><path d="M193.0011,161.8515 C197.1163,173.6549 200.818,185.8521 203.5,197.6406 C216.5796,255.1312 221.4882,321.5301 223.1748,372.3656 " fill="none" style="stroke: #A80036; stroke-width: 1.0;"/><path d="M311.8665,323.6948 C301.4968,339.0025 290.0264,355.9351 278.879,372.3907 " fill="none" style="stroke: #A80036; stroke-width: 1.0;"/></g></svg>