<?xml version="1.0" encoding="us-ascii" standalone="no"?><svg xmlns="http://www.w3.org/2000/svg" xmlns:xlink="http://www.w3.org/1999/xlink" contentStyleType="text/css" height="630px" preserveAspectRatio="none" style="width:432px;height:630px;background:#FFFFFF;" version="1.1" viewBox="0 0 432 630" width="432px" zoomAndPan="magnify"><defs/><g><!--class app_project--><g id="elem_app_project"><rect codeLine="3" fill="#F1F1F1" height="163.418" id="app_project" rx="2.5" ry="2.5" style="stroke:#181818;stroke-width:0.5;" width="181" x="6" y="228"/><ellipse cx="51.75" cy="244" fill="#ADD1B2" rx="11" ry="11" style="stroke:#181818;stroke-width:1.0;"/><path d="M55.3643,250.5 L47.6445,250.5 L47.6445,238.1069 L55.3643,238.1069 L55.3643,240.2651 L50.0933,240.2651 L50.0933,242.938 L54.8662,242.938 L54.8662,245.0962 L50.0933,245.0962 L50.0933,248.3418 L55.3643,248.3418 Z " fill="#000000"/><text fill="#000000" font-family="sans-serif" font-size="14" lengthAdjust="spacing" textLength="81" x="72.25" y="249.291">app_project</text><line style="stroke:#181818;stroke-width:0.5;" x1="7" x2="186" y1="260" y2="260"/><ellipse cx="17" cy="273.7441" fill="#000000" rx="3" ry="3" style="stroke:#000000;stroke-width:1.0;"/><text fill="#000000" font-family="sans-serif" font-size="14" lengthAdjust="spacing" textLength="124" x="26" y="277.5352">"id" : "varchar(64)"</text><line style="stroke:#181818;stroke-width:1.0;" x1="7" x2="186" y1="284.4883" y2="284.4883"/><text fill="#000000" font-family="sans-serif" font-size="14" lengthAdjust="spacing" textLength="97" x="12" y="302.0234">"name" : "text"</text><text fill="#000000" font-family="sans-serif" font-size="14" lengthAdjust="spacing" textLength="136" x="12" y="318.5117">"description" : "text"</text><text fill="#000000" font-family="sans-serif" font-size="14" lengthAdjust="spacing" textLength="136" x="12" y="335">"status_type" : "text"</text><text fill="#000000" font-family="sans-serif" font-size="14" lengthAdjust="spacing" textLength="161" x="12" y="351.4883">"user_id" : "varchar(64)"</text><text fill="#000000" font-family="sans-serif" font-size="14" lengthAdjust="spacing" textLength="163" x="12" y="367.9766">"created" : "timestampz"</text><text fill="#000000" font-family="sans-serif" font-size="14" lengthAdjust="spacing" textLength="169" x="12" y="384.4648">"updated" : "timestampz"</text></g><!--class app_task--><g id="elem_app_task"><rect codeLine="14" fill="#F1F1F1" height="179.9063" id="app_task" rx="2.5" ry="2.5" style="stroke:#181818;stroke-width:0.5;" width="191" x="60" y="12"/><ellipse cx="120.75" cy="28" fill="#ADD1B2" rx="11" ry="11" style="stroke:#181818;stroke-width:1.0;"/><path d="M124.3643,34.5 L116.6445,34.5 L116.6445,22.1069 L124.3643,22.1069 L124.3643,24.2651 L119.0933,24.2651 L119.0933,26.938 L123.8662,26.938 L123.8662,29.0962 L119.0933,29.0962 L119.0933,32.3418 L124.3643,32.3418 Z " fill="#000000"/><text fill="#000000" font-family="sans-serif" font-size="14" lengthAdjust="spacing" textLength="61" x="141.25" y="33.291">app_task</text><line style="stroke:#181818;stroke-width:0.5;" x1="61" x2="250" y1="44" y2="44"/><ellipse cx="71" cy="57.7441" fill="#000000" rx="3" ry="3" style="stroke:#000000;stroke-width:1.0;"/><text fill="#000000" font-family="sans-serif" font-size="14" lengthAdjust="spacing" textLength="124" x="80" y="61.5352">"id" : "varchar(64)"</text><line style="stroke:#181818;stroke-width:1.0;" x1="61" x2="250" y1="68.4883" y2="68.4883"/><text fill="#000000" font-family="sans-serif" font-size="14" lengthAdjust="spacing" textLength="97" x="66" y="86.0234">"name" : "text"</text><text fill="#000000" font-family="sans-serif" font-size="14" lengthAdjust="spacing" textLength="136" x="66" y="102.5117">"description" : "text"</text><text fill="#000000" font-family="sans-serif" font-size="14" lengthAdjust="spacing" textLength="136" x="66" y="119">"status_type" : "text"</text><text fill="#000000" font-family="sans-serif" font-size="14" lengthAdjust="spacing" textLength="179" x="66" y="135.4883">"project_id" : "varchar(64)"</text><text fill="#000000" font-family="sans-serif" font-size="14" lengthAdjust="spacing" textLength="161" x="66" y="151.9766">"user_id" : "varchar(64)"</text><text fill="#000000" font-family="sans-serif" font-size="14" lengthAdjust="spacing" textLength="163" x="66" y="168.4648">"created" : "timestampz"</text><text fill="#000000" font-family="sans-serif" font-size="14" lengthAdjust="spacing" textLength="169" x="66" y="184.9531">"updated" : "timestampz"</text></g><!--class app_user--><g id="elem_app_user"><rect codeLine="26" fill="#F1F1F1" height="196.3945" id="app_user" rx="2.5" ry="2.5" style="stroke:#181818;stroke-width:0.5;" width="181" x="125" y="427"/><ellipse cx="179.75" cy="443" fill="#ADD1B2" rx="11" ry="11" style="stroke:#181818;stroke-width:1.0;"/><path d="M183.3643,449.5 L175.6445,449.5 L175.6445,437.1069 L183.3643,437.1069 L183.3643,439.2651 L178.0933,439.2651 L178.0933,441.938 L182.8662,441.938 L182.8662,444.0962 L178.0933,444.0962 L178.0933,447.3418 L183.3643,447.3418 Z " fill="#000000"/><text fill="#000000" font-family="sans-serif" font-size="14" lengthAdjust="spacing" textLength="63" x="200.25" y="448.291">app_user</text><line style="stroke:#181818;stroke-width:0.5;" x1="126" x2="305" y1="459" y2="459"/><ellipse cx="136" cy="472.7441" fill="#000000" rx="3" ry="3" style="stroke:#000000;stroke-width:1.0;"/><text fill="#000000" font-family="sans-serif" font-size="14" lengthAdjust="spacing" textLength="124" x="145" y="476.5352">"id" : "varchar(64)"</text><line style="stroke:#181818;stroke-width:1.0;" x1="126" x2="305" y1="483.4883" y2="483.4883"/><text fill="#000000" font-family="sans-serif" font-size="14" lengthAdjust="spacing" textLength="127" x="131" y="501.0234">"username" : "text"</text><text fill="#000000" font-family="sans-serif" font-size="14" lengthAdjust="spacing" textLength="96" x="131" y="517.5117">"email" : "text"</text><text fill="#000000" font-family="sans-serif" font-size="14" lengthAdjust="spacing" textLength="165" x="131" y="534">"password_&#1088;ash" : "text"</text><text fill="#000000" font-family="sans-serif" font-size="14" lengthAdjust="spacing" textLength="131" x="131" y="550.4883">"first_name" : "text"</text><text fill="#000000" font-family="sans-serif" font-size="14" lengthAdjust="spacing" textLength="128" x="131" y="566.9766">"last_name" : "text"</text><text fill="#000000" font-family="sans-serif" font-size="14" lengthAdjust="spacing" textLength="151" x="131" y="583.4648">"middle_name" : "text"</text><text fill="#000000" font-family="sans-serif" font-size="14" lengthAdjust="spacing" textLength="163" x="131" y="599.9531">"created" : "timestampz"</text><text fill="#000000" font-family="sans-serif" font-size="14" lengthAdjust="spacing" textLength="169" x="131" y="616.4414">"updated" : "timestampz"</text></g><!--class app_role--><g id="elem_app_role"><rect codeLine="39" fill="#F1F1F1" height="130.4414" id="app_role" rx="2.5" ry="2.5" style="stroke:#181818;stroke-width:0.5;" width="181" x="244" y="244.5"/><ellipse cx="300.25" cy="260.5" fill="#ADD1B2" rx="11" ry="11" style="stroke:#181818;stroke-width:1.0;"/><path d="M303.8643,267 L296.1445,267 L296.1445,254.6069 L303.8643,254.6069 L303.8643,256.7651 L298.5933,256.7651 L298.5933,259.438 L303.3662,259.438 L303.3662,261.5962 L298.5933,261.5962 L298.5933,264.8418 L303.8643,264.8418 Z " fill="#000000"/><text fill="#000000" font-family="sans-serif" font-size="14" lengthAdjust="spacing" textLength="60" x="320.75" y="265.791">app_role</text><line style="stroke:#181818;stroke-width:0.5;" x1="245" x2="424" y1="276.5" y2="276.5"/><ellipse cx="255" cy="290.2441" fill="#000000" rx="3" ry="3" style="stroke:#000000;stroke-width:1.0;"/><text fill="#000000" font-family="sans-serif" font-size="14" lengthAdjust="spacing" textLength="124" x="264" y="294.0352">"id" : "varchar(64)"</text><line style="stroke:#181818;stroke-width:1.0;" x1="245" x2="424" y1="300.9883" y2="300.9883"/><text fill="#000000" font-family="sans-serif" font-size="14" lengthAdjust="spacing" textLength="161" x="250" y="318.5234">"user_id" : "varchar(64)"</text><text fill="#000000" font-family="sans-serif" font-size="14" lengthAdjust="spacing" textLength="125" x="250" y="335.0117">"user_type" : "text"</text><text fill="#000000" font-family="sans-serif" font-size="14" lengthAdjust="spacing" textLength="163" x="250" y="351.5">"created" : "timestampz"</text><text fill="#000000" font-family="sans-serif" font-size="14" lengthAdjust="spacing" textLength="169" x="250" y="367.9883">"updated" : "timestampz"</text></g><path d="M141.4888,391.2152 C147.9389,402.7875 154.6314,414.7946 161.2371,426.6459 " fill="none" style="stroke:#181818;stroke-width:1.0;"/><line style="stroke:#181818;stroke-width:1.0;" x1="145.3837" x2="134.5009" y1="398.203" y2="395.1101"/><line style="stroke:#181818;stroke-width:1.0;" x1="145.3837" x2="148.4766" y1="398.203" y2="387.3203"/><line style="stroke:#181818;stroke-width:1.0;" x1="145.3837" x2="141.4888" y1="398.203" y2="391.2152"/><line style="stroke:#181818;stroke-width:1.0;" x1="162.7836" x2="155.7957" y1="421.2046" y2="425.0994"/><line style="stroke:#181818;stroke-width:1.0;" x1="161.323" x2="154.3351" y1="418.5841" y2="422.479"/><line style="stroke:#181818;stroke-width:1.0;" x1="157.3422" x2="161.2371" y1="419.6581" y2="426.6459"/><path d="M129.8791,192.2387 C126.4894,204.0454 123.0301,216.0942 119.6846,227.747 " fill="none" style="stroke:#181818;stroke-width:1.0;"/><line style="stroke:#181818;stroke-width:1.0;" x1="127.6715" x2="122.1898" y1="199.9281" y2="190.0311"/><line style="stroke:#181818;stroke-width:1.0;" x1="127.6715" x2="137.5685" y1="199.9281" y2="194.4464"/><line style="stroke:#181818;stroke-width:1.0;" x1="127.6715" x2="129.8791" y1="199.9281" y2="192.2387"/><line style="stroke:#181818;stroke-width:1.0;" x1="124.6331" x2="116.9437" y1="225.0061" y2="222.7985"/><line style="stroke:#181818;stroke-width:1.0;" x1="125.4609" x2="117.7716" y1="222.1226" y2="219.915"/><line style="stroke:#181818;stroke-width:1.0;" x1="121.8922" x2="119.6846" y1="220.0576" y2="227.747"/><path d="M186.8919,192.1099 C190.2524,204.0618 193.2574,216.2497 195.5,228 C208.0283,293.6443 212.9947,368.7841 214.8461,426.9312 " fill="none" style="stroke:#181818;stroke-width:1.0;"/><line style="stroke:#181818;stroke-width:1.0;" x1="189.0573" x2="179.1906" y1="199.8112" y2="194.2752"/><line style="stroke:#181818;stroke-width:1.0;" x1="189.0573" x2="194.5933" y1="199.8112" y2="189.9445"/><line style="stroke:#181818;stroke-width:1.0;" x1="189.0573" x2="186.8919" y1="199.8112" y2="192.1099"/><line style="stroke:#181818;stroke-width:1.0;" x1="218.7168" x2="210.7209" y1="422.8059" y2="423.0605"/><line style="stroke:#181818;stroke-width:1.0;" x1="218.6213" x2="210.6254" y1="419.8074" y2="420.062"/><line style="stroke:#181818;stroke-width:1.0;" x1="214.5915" x2="214.8461" y1="418.9352" y2="426.9312"/><path d="M298.7961,374.557 C289.6223,391.0159 279.5449,409.096 269.6652,426.8212 " fill="none" style="stroke:#181818;stroke-width:1.0;"/><line style="stroke:#181818;stroke-width:1.0;" x1="294.9012" x2="291.8082" y1="381.5449" y2="370.6622"/><line style="stroke:#181818;stroke-width:1.0;" x1="294.9012" x2="305.7839" y1="381.5449" y2="378.4519"/><line style="stroke:#181818;stroke-width:1.0;" x1="294.9012" x2="298.7961" y1="381.5449" y2="374.557"/><line style="stroke:#181818;stroke-width:1.0;" x1="275.1066" x2="268.1187" y1="425.2747" y2="421.3799"/><line style="stroke:#181818;stroke-width:1.0;" x1="276.5671" x2="269.5793" y1="422.6543" y2="418.7594"/><line style="stroke:#181818;stroke-width:1.0;" x1="273.5601" x2="269.6652" y1="419.8334" y2="426.8212"/><!--SRC=[lPDBRiCW443td8AowKTYLtNHow2HcSQang1XdDRvIBbYRzJOhYKdnkf7RLcmu34CRmQkhoB1oeDS4SHouxR61fRhRX8Zgg0D3SlaaQ46AR1cnwrK4AE95DPOi98x8K_ZJZchvADK6w2Y1BfvkBzLGclTKrM3nnuplh8QrYocWbna5-fBb1YuIORRE8jg4fB9vUffGGYC0sNdyNIGZzinDDeiF8WpCuRq_EzQ7-LSDljxxox35xsxhJbtzE2gcHgaz1B8chSZfFAIFZbAR7A7LR00lBEsmYpwZJfGgF0RTVYaPRbc__IMvn_leFL-FscTcBpU2HltB-19w20-O-y0]--></g></svg>