<?xml version="1.0" encoding="us-ascii" standalone="no"?><svg xmlns="http://www.w3.org/2000/svg" xmlns:xlink="http://www.w3.org/1999/xlink" contentStyleType="text/css" height="745px" preserveAspectRatio="none" style="width:715px;height:745px;background:#FFFFFF;" version="1.1" viewBox="0 0 715 745" width="715px" zoomAndPan="magnify"><defs/><g><!--class app_profile--><g id="elem_app_profile"><rect codeLine="3" fill="#F1F1F1" height="229.3711" id="app_profile" rx="2.5" ry="2.5" style="stroke:#181818;stroke-width:0.5;" width="298" x="6" y="277"/><ellipse cx="111.75" cy="293" fill="#ADD1B2" rx="11" ry="11" style="stroke:#181818;stroke-width:1.0;"/><path d="M115.3643,299.5 L107.6445,299.5 L107.6445,287.1069 L115.3643,287.1069 L115.3643,289.2651 L110.0933,289.2651 L110.0933,291.938 L114.8662,291.938 L114.8662,294.0962 L110.0933,294.0962 L110.0933,297.3418 L115.3643,297.3418 Z " fill="#000000"/><text fill="#000000" font-family="sans-serif" font-size="14" lengthAdjust="spacing" textLength="78" x="132.25" y="298.291">app_profile</text><line style="stroke:#181818;stroke-width:0.5;" x1="7" x2="303" y1="309" y2="309"/><ellipse cx="17" cy="322.7441" fill="#000000" rx="3" ry="3" style="stroke:#000000;stroke-width:1.0;"/><text fill="#000000" font-family="sans-serif" font-size="14" lengthAdjust="spacing" textLength="149" x="26" y="326.5352">"id" : "VARCHAR(255)"</text><line style="stroke:#181818;stroke-width:1.0;" x1="7" x2="303" y1="333.4883" y2="333.4883"/><text fill="#000000" font-family="sans-serif" font-size="14" lengthAdjust="spacing" textLength="186" x="12" y="351.0234">"user_id" : "VARCHAR(255)"</text><text fill="#000000" font-family="sans-serif" font-size="14" lengthAdjust="spacing" textLength="208" x="12" y="367.5117">"first_name" : "VARCHAR(255)"</text><text fill="#000000" font-family="sans-serif" font-size="14" lengthAdjust="spacing" textLength="205" x="12" y="384">"last_name" : "VARCHAR(255)"</text><text fill="#000000" font-family="sans-serif" font-size="14" lengthAdjust="spacing" textLength="228" x="12" y="400.4883">"middle_name" : "VARCHAR(255)"</text><text fill="#000000" font-family="sans-serif" font-size="14" lengthAdjust="spacing" textLength="140" x="12" y="416.9766">"version" : "INTEGER"</text><text fill="#000000" font-family="sans-serif" font-size="14" lengthAdjust="spacing" textLength="166" x="12" y="433.4648">"is_deleted" : "BOOLEAN"</text><text fill="#000000" font-family="sans-serif" font-size="14" lengthAdjust="spacing" textLength="280" x="12" y="449.9531">"created" : "TIMESTAMP WITH TIME ZONE"</text><text fill="#000000" font-family="sans-serif" font-size="14" lengthAdjust="spacing" textLength="286" x="12" y="466.4414">"updated" : "TIMESTAMP WITH TIME ZONE"</text><text fill="#000000" font-family="sans-serif" font-size="14" lengthAdjust="spacing" textLength="280" x="12" y="482.9297">"deleted" : "TIMESTAMP WITH TIME ZONE"</text><text fill="#000000" font-family="sans-serif" font-size="14" lengthAdjust="spacing" textLength="107" x="12" y="499.418">"about" : "TEXT"</text></g><!--class app_project--><g id="elem_app_project"><rect codeLine="18" fill="#F1F1F1" height="212.8828" id="app_project" rx="2.5" ry="2.5" style="stroke:#181818;stroke-width:0.5;" width="298" x="322" y="285"/><ellipse cx="426.25" cy="301" fill="#ADD1B2" rx="11" ry="11" style="stroke:#181818;stroke-width:1.0;"/><path d="M429.8643,307.5 L422.1445,307.5 L422.1445,295.1069 L429.8643,295.1069 L429.8643,297.2651 L424.5933,297.2651 L424.5933,299.938 L429.3662,299.938 L429.3662,302.0962 L424.5933,302.0962 L424.5933,305.3418 L429.8643,305.3418 Z " fill="#000000"/><text fill="#000000" font-family="sans-serif" font-size="14" lengthAdjust="spacing" textLength="81" x="446.75" y="306.291">app_project</text><line style="stroke:#181818;stroke-width:0.5;" x1="323" x2="619" y1="317" y2="317"/><ellipse cx="333" cy="330.7441" fill="#000000" rx="3" ry="3" style="stroke:#000000;stroke-width:1.0;"/><text fill="#000000" font-family="sans-serif" font-size="14" lengthAdjust="spacing" textLength="149" x="342" y="334.5352">"id" : "VARCHAR(255)"</text><line style="stroke:#181818;stroke-width:1.0;" x1="323" x2="619" y1="341.4883" y2="341.4883"/><text fill="#000000" font-family="sans-serif" font-size="14" lengthAdjust="spacing" textLength="174" x="328" y="359.0234">"name" : "VARCHAR(255)"</text><text fill="#000000" font-family="sans-serif" font-size="14" lengthAdjust="spacing" textLength="213" x="328" y="375.5117">"description" : "VARCHAR(255)"</text><text fill="#000000" font-family="sans-serif" font-size="14" lengthAdjust="spacing" textLength="186" x="328" y="392">"user_id" : "VARCHAR(255)"</text><text fill="#000000" font-family="sans-serif" font-size="14" lengthAdjust="spacing" textLength="127" x="328" y="408.4883">"status" : "STATUS"</text><text fill="#000000" font-family="sans-serif" font-size="14" lengthAdjust="spacing" textLength="140" x="328" y="424.9766">"version" : "INTEGER"</text><text fill="#000000" font-family="sans-serif" font-size="14" lengthAdjust="spacing" textLength="166" x="328" y="441.4648">"is_deleted" : "BOOLEAN"</text><text fill="#000000" font-family="sans-serif" font-size="14" lengthAdjust="spacing" textLength="280" x="328" y="457.9531">"created" : "TIMESTAMP WITH TIME ZONE"</text><text fill="#000000" font-family="sans-serif" font-size="14" lengthAdjust="spacing" textLength="286" x="328" y="474.4414">"updated" : "TIMESTAMP WITH TIME ZONE"</text><text fill="#000000" font-family="sans-serif" font-size="14" lengthAdjust="spacing" textLength="280" x="328" y="490.9297">"deleted" : "TIMESTAMP WITH TIME ZONE"</text></g><!--class app_task--><g id="elem_app_task"><rect codeLine="32" fill="#F1F1F1" height="229.3711" id="app_task" rx="2.5" ry="2.5" style="stroke:#181818;stroke-width:0.5;" width="298" x="410" y="12"/><ellipse cx="524.25" cy="28" fill="#ADD1B2" rx="11" ry="11" style="stroke:#181818;stroke-width:1.0;"/><path d="M527.8643,34.5 L520.1445,34.5 L520.1445,22.1069 L527.8643,22.1069 L527.8643,24.2651 L522.5933,24.2651 L522.5933,26.938 L527.3662,26.938 L527.3662,29.0962 L522.5933,29.0962 L522.5933,32.3418 L527.8643,32.3418 Z " fill="#000000"/><text fill="#000000" font-family="sans-serif" font-size="14" lengthAdjust="spacing" textLength="61" x="544.75" y="33.291">app_task</text><line style="stroke:#181818;stroke-width:0.5;" x1="411" x2="707" y1="44" y2="44"/><ellipse cx="421" cy="57.7441" fill="#000000" rx="3" ry="3" style="stroke:#000000;stroke-width:1.0;"/><text fill="#000000" font-family="sans-serif" font-size="14" lengthAdjust="spacing" textLength="149" x="430" y="61.5352">"id" : "VARCHAR(255)"</text><line style="stroke:#181818;stroke-width:1.0;" x1="411" x2="707" y1="68.4883" y2="68.4883"/><text fill="#000000" font-family="sans-serif" font-size="14" lengthAdjust="spacing" textLength="174" x="416" y="86.0234">"name" : "VARCHAR(255)"</text><text fill="#000000" font-family="sans-serif" font-size="14" lengthAdjust="spacing" textLength="213" x="416" y="102.5117">"description" : "VARCHAR(255)"</text><text fill="#000000" font-family="sans-serif" font-size="14" lengthAdjust="spacing" textLength="204" x="416" y="119">"project_id" : "VARCHAR(255)"</text><text fill="#000000" font-family="sans-serif" font-size="14" lengthAdjust="spacing" textLength="186" x="416" y="135.4883">"user_id" : "VARCHAR(255)"</text><text fill="#000000" font-family="sans-serif" font-size="14" lengthAdjust="spacing" textLength="127" x="416" y="151.9766">"status" : "STATUS"</text><text fill="#000000" font-family="sans-serif" font-size="14" lengthAdjust="spacing" textLength="140" x="416" y="168.4648">"version" : "INTEGER"</text><text fill="#000000" font-family="sans-serif" font-size="14" lengthAdjust="spacing" textLength="166" x="416" y="184.9531">"is_deleted" : "BOOLEAN"</text><text fill="#000000" font-family="sans-serif" font-size="14" lengthAdjust="spacing" textLength="280" x="416" y="201.4414">"created" : "TIMESTAMP WITH TIME ZONE"</text><text fill="#000000" font-family="sans-serif" font-size="14" lengthAdjust="spacing" textLength="286" x="416" y="217.9297">"updated" : "TIMESTAMP WITH TIME ZONE"</text><text fill="#000000" font-family="sans-serif" font-size="14" lengthAdjust="spacing" textLength="280" x="416" y="234.418">"deleted" : "TIMESTAMP WITH TIME ZONE"</text></g><!--class app_user--><g id="elem_app_user"><rect codeLine="47" fill="#F1F1F1" height="196.3945" id="app_user" rx="2.5" ry="2.5" style="stroke:#181818;stroke-width:0.5;" width="298" x="322" y="542"/><ellipse cx="435.25" cy="558" fill="#ADD1B2" rx="11" ry="11" style="stroke:#181818;stroke-width:1.0;"/><path d="M438.8643,564.5 L431.1445,564.5 L431.1445,552.1069 L438.8643,552.1069 L438.8643,554.2651 L433.5933,554.2651 L433.5933,556.938 L438.3662,556.938 L438.3662,559.0962 L433.5933,559.0962 L433.5933,562.3418 L438.8643,562.3418 Z " fill="#000000"/><text fill="#000000" font-family="sans-serif" font-size="14" lengthAdjust="spacing" textLength="63" x="455.75" y="563.291">app_user</text><line style="stroke:#181818;stroke-width:0.5;" x1="323" x2="619" y1="574" y2="574"/><ellipse cx="333" cy="587.7441" fill="#000000" rx="3" ry="3" style="stroke:#000000;stroke-width:1.0;"/><text fill="#000000" font-family="sans-serif" font-size="14" lengthAdjust="spacing" textLength="149" x="342" y="591.5352">"id" : "VARCHAR(255)"</text><line style="stroke:#181818;stroke-width:1.0;" x1="323" x2="619" y1="598.4883" y2="598.4883"/><text fill="#000000" font-family="sans-serif" font-size="14" lengthAdjust="spacing" textLength="204" x="328" y="616.0234">"username" : "VARCHAR(255)"</text><text fill="#000000" font-family="sans-serif" font-size="14" lengthAdjust="spacing" textLength="242" x="328" y="632.5117">"password_hash" : "VARCHAR(255)"</text><text fill="#000000" font-family="sans-serif" font-size="14" lengthAdjust="spacing" textLength="173" x="328" y="649">"email" : "VARCHAR(255)"</text><text fill="#000000" font-family="sans-serif" font-size="14" lengthAdjust="spacing" textLength="140" x="328" y="665.4883">"version" : "INTEGER"</text><text fill="#000000" font-family="sans-serif" font-size="14" lengthAdjust="spacing" textLength="166" x="328" y="681.9766">"is_deleted" : "BOOLEAN"</text><text fill="#000000" font-family="sans-serif" font-size="14" lengthAdjust="spacing" textLength="280" x="328" y="698.4648">"created" : "TIMESTAMP WITH TIME ZONE"</text><text fill="#000000" font-family="sans-serif" font-size="14" lengthAdjust="spacing" textLength="286" x="328" y="714.9531">"updated" : "TIMESTAMP WITH TIME ZONE"</text><text fill="#000000" font-family="sans-serif" font-size="14" lengthAdjust="spacing" textLength="280" x="328" y="731.4414">"deleted" : "TIMESTAMP WITH TIME ZONE"</text></g><path d="M300.5135,506.0098 C315.9018,518.0136 331.4491,530.1414 346.5665,541.934 " fill="none" style="stroke:#181818;stroke-width:1.0;"/><line style="stroke:#181818;stroke-width:1.0;" x1="301.2072" x2="306.1277" y1="511.6239" y2="505.3161"/><line style="stroke:#181818;stroke-width:1.0;" x1="303.5726" x2="308.4931" y1="513.4691" y2="507.1613"/><line style="stroke:#181818;stroke-width:1.0;" x1="306.8214" x2="300.5135" y1="510.9303" y2="506.0098"/><line style="stroke:#181818;stroke-width:1.0;" x1="345.8728" x2="340.9523" y1="536.3198" y2="542.6276"/><line style="stroke:#181818;stroke-width:1.0;" x1="343.5074" x2="338.5869" y1="534.4746" y2="540.7824"/><line style="stroke:#181818;stroke-width:1.0;" x1="340.2586" x2="346.5665" y1="537.0135" y2="541.934"/><path d="M471,498.1109 C471,512.6155 471,527.453 471,541.7972 " fill="none" style="stroke:#181818;stroke-width:1.0;"/><line style="stroke:#181818;stroke-width:1.0;" x1="471" x2="463" y1="506.1109" y2="498.1109"/><line style="stroke:#181818;stroke-width:1.0;" x1="471" x2="479" y1="506.1109" y2="498.1109"/><line style="stroke:#181818;stroke-width:1.0;" x1="471" x2="471" y1="506.1109" y2="498.1109"/><line style="stroke:#181818;stroke-width:1.0;" x1="475" x2="467" y1="537.7972" y2="537.7972"/><line style="stroke:#181818;stroke-width:1.0;" x1="475" x2="467" y1="534.7972" y2="534.7972"/><line style="stroke:#181818;stroke-width:1.0;" x1="471" x2="471" y1="533.7972" y2="541.7972"/><path d="M520.9137,241.326 C516.0828,255.7639 511.155,270.4913 506.369,284.7948 " fill="none" style="stroke:#181818;stroke-width:1.0;"/><line style="stroke:#181818;stroke-width:1.0;" x1="518.3753" x2="513.3272" y1="248.9126" y2="238.7875"/><line style="stroke:#181818;stroke-width:1.0;" x1="518.3753" x2="528.5003" y1="248.9126" y2="243.8645"/><line style="stroke:#181818;stroke-width:1.0;" x1="518.3753" x2="520.9137" y1="248.9126" y2="241.326"/><line style="stroke:#181818;stroke-width:1.0;" x1="511.4316" x2="503.845" y1="282.2708" y2="279.7323"/><line style="stroke:#181818;stroke-width:1.0;" x1="512.3835" x2="504.7969" y1="279.4258" y2="276.8873"/><line style="stroke:#181818;stroke-width:1.0;" x1="508.9075" x2="506.369" y1="277.2083" y2="284.7948"/><path d="M618.3324,241.1988 C622.6579,253.0486 626.3544,265.1107 629,277 C651.107,376.3479 671.9409,413.7244 629,506 C623.1002,518.678 615.3311,530.5799 606.3991,541.648 " fill="none" style="stroke:#181818;stroke-width:1.0;"/><line style="stroke:#181818;stroke-width:1.0;" x1="621.0756" x2="610.8174" y1="248.7137" y2="243.9419"/><line style="stroke:#181818;stroke-width:1.0;" x1="621.0756" x2="625.8474" y1="248.7137" y2="238.4556"/><line style="stroke:#181818;stroke-width:1.0;" x1="621.0756" x2="618.3324" y1="248.7137" y2="241.1988"/><line style="stroke:#181818;stroke-width:1.0;" x1="612.0239" x2="605.7983" y1="541.0473" y2="536.0231"/><line style="stroke:#181818;stroke-width:1.0;" x1="613.908" x2="607.6824" y1="538.7126" y2="533.6885"/><line style="stroke:#181818;stroke-width:1.0;" x1="611.4232" x2="606.3991" y1="535.4224" y2="541.648"/><!--SRC=[vPHRQy8m68RlyokotEm0lHbuixjkb5cOEZGxi9lopNngN0yXIHrkzR-lzW0gshgRmRPU1Chpb2RlIxxJ4wLX6W6TQb2pXVm8H6BfVBsG6eMmJ59BJOGMOg04OoljaZ9GAb0wcSWG6VqaD7ykc1ICNb7sw0vlkkxmxBBJEMV4SPm2izIW3lOg1Pv8RMmGGuI7Z11QX4WA4MAZia1jP18NsEzpxzORLaIQG6285iiTNWy6TvxRh-1O8zI4-prlnDtUFNtoUPUkN-dBeEzLQgh4iUhc_rfKUCrhA4NlcJEo8hjLp75iZwsYAI61PgobidLAUvIM9eq5cvg2vYVY3wFVc_rEp1RCsmzbN3NQ4FE_RM5zyEyCdQOc51ZpdcWHpC3C3aaOWGp_q4J9yzmUu5dcE5csaIxPdYghlRYy3HkizW_WyjCl]--></g></svg>