<?xml version="1.0" encoding="UTF-8" standalone="no"?><svg xmlns="http://www.w3.org/2000/svg" xmlns:xlink="http://www.w3.org/1999/xlink" contentScriptType="application/ecmascript" contentStyleType="text/css" height="429px" preserveAspectRatio="none" style="width:456px;height:429px;" version="1.1" viewBox="0 0 456 429" width="456px" zoomAndPan="magnify"><defs><filter height="300%" id="f9the76" width="300%" x="-1" y="-1"><feGaussianBlur result="blurOut" stdDeviation="2.0"/><feColorMatrix in="blurOut" result="blurOut2" type="matrix" values="0 0 0 0 0 0 0 0 0 0 0 0 0 0 0 0 0 0 .4 0"/><feOffset dx="4.0" dy="4.0" in="blurOut2" result="blurOut3"/><feBlend in="SourceGraphic" in2="blurOut3" mode="normal"/></filter></defs><g><!--class app_profile--><rect fill="#FEFECE" filter="url(#f9the76)" height="112.7754" style="stroke: #A80036; stroke-width: 1.5;" width="190" x="0" y="171.7305"/><ellipse cx="57.75" cy="187.7305" fill="#ADD1B2" rx="11" ry="11" style="stroke: #A80036; stroke-width: 1.0;"/><path d="M61.8643,193.7305 L54.1445,193.7305 L54.1445,181.3374 L61.8643,181.3374 L61.8643,183.4956 L56.5933,183.4956 L56.5933,186.1685 L61.3662,186.1685 L61.3662,188.3267 L56.5933,188.3267 L56.5933,191.5723 L61.8643,191.5723 Z "/><text fill="#000000" font-family="sans-serif" font-size="12" lengthAdjust="spacingAndGlyphs" textLength="66" x="78.25" y="192.2656">app_profile</text><line style="stroke: #A80036; stroke-width: 1.5;" x1="1" x2="189" y1="203.7305" y2="203.7305"/><ellipse cx="11" cy="215.708" fill="#000000" rx="3" ry="3" style="stroke: #000000; stroke-width: 1.0;"/><text fill="#000000" font-family="sans-serif" font-size="11" lengthAdjust="spacingAndGlyphs" textLength="117" x="20" y="218.3652">"id" : "VARCHAR(255)"</text><line style="stroke: #A80036; stroke-width: 1.0;" x1="1" x2="189" y1="224.6855" y2="224.6855"/><text fill="#000000" font-family="sans-serif" font-size="11" lengthAdjust="spacingAndGlyphs" textLength="147" x="6" y="239.3203">"user_id" : "VARCHAR(255)"</text><text fill="#000000" font-family="sans-serif" font-size="11" lengthAdjust="spacingAndGlyphs" textLength="164" x="6" y="252.2754">"first_name" : "VARCHAR(255)"</text><text fill="#000000" font-family="sans-serif" font-size="11" lengthAdjust="spacingAndGlyphs" textLength="161" x="6" y="265.2305">"last_name" : "VARCHAR(255)"</text><text fill="#000000" font-family="sans-serif" font-size="11" lengthAdjust="spacingAndGlyphs" textLength="178" x="6" y="278.1855">"middle_name" : "VARCHAR(255)"</text><!--class app_project--><rect fill="#FEFECE" filter="url(#f9the76)" height="112.7754" style="stroke: #A80036; stroke-width: 1.5;" width="180" x="208" y="171.7305"/><ellipse cx="258.75" cy="187.7305" fill="#ADD1B2" rx="11" ry="11" style="stroke: #A80036; stroke-width: 1.0;"/><path d="M262.8643,193.7305 L255.1445,193.7305 L255.1445,181.3374 L262.8643,181.3374 L262.8643,183.4956 L257.5933,183.4956 L257.5933,186.1685 L262.3662,186.1685 L262.3662,188.3267 L257.5933,188.3267 L257.5933,191.5723 L262.8643,191.5723 Z "/><text fill="#000000" font-family="sans-serif" font-size="12" lengthAdjust="spacingAndGlyphs" textLength="70" x="279.25" y="192.2656">app_project</text><line style="stroke: #A80036; stroke-width: 1.5;" x1="209" x2="387" y1="203.7305" y2="203.7305"/><ellipse cx="219" cy="215.708" fill="#000000" rx="3" ry="3" style="stroke: #000000; stroke-width: 1.0;"/><text fill="#000000" font-family="sans-serif" font-size="11" lengthAdjust="spacingAndGlyphs" textLength="117" x="228" y="218.3652">"id" : "VARCHAR(255)"</text><line style="stroke: #A80036; stroke-width: 1.0;" x1="209" x2="387" y1="224.6855" y2="224.6855"/><text fill="#000000" font-family="sans-serif" font-size="11" lengthAdjust="spacingAndGlyphs" textLength="136" x="214" y="239.3203">"name" : "VARCHAR(255)"</text><text fill="#000000" font-family="sans-serif" font-size="11" lengthAdjust="spacingAndGlyphs" textLength="168" x="214" y="252.2754">"description" : "VARCHAR(255)"</text><text fill="#000000" font-family="sans-serif" font-size="11" lengthAdjust="spacingAndGlyphs" textLength="147" x="214" y="265.2305">"user_id" : "VARCHAR(255)"</text><text fill="#000000" font-family="sans-serif" font-size="11" lengthAdjust="spacingAndGlyphs" textLength="100" x="214" y="278.1855">"status" : "STATUS"</text><!--class app_task--><rect fill="#FEFECE" filter="url(#f9the76)" height="125.7305" style="stroke: #A80036; stroke-width: 1.5;" width="180" x="267" y="9.7305"/><ellipse cx="326.25" cy="25.7305" fill="#ADD1B2" rx="11" ry="11" style="stroke: #A80036; stroke-width: 1.0;"/><path d="M330.3643,31.7305 L322.6445,31.7305 L322.6445,19.3374 L330.3643,19.3374 L330.3643,21.4956 L325.0933,21.4956 L325.0933,24.1685 L329.8662,24.1685 L329.8662,26.3267 L325.0933,26.3267 L325.0933,29.5723 L330.3643,29.5723 Z "/><text fill="#000000" font-family="sans-serif" font-size="12" lengthAdjust="spacingAndGlyphs" textLength="53" x="346.75" y="30.2656">app_task</text><line style="stroke: #A80036; stroke-width: 1.5;" x1="268" x2="446" y1="41.7305" y2="41.7305"/><ellipse cx="278" cy="53.708" fill="#000000" rx="3" ry="3" style="stroke: #000000; stroke-width: 1.0;"/><text fill="#000000" font-family="sans-serif" font-size="11" lengthAdjust="spacingAndGlyphs" textLength="117" x="287" y="56.3652">"id" : "VARCHAR(255)"</text><line style="stroke: #A80036; stroke-width: 1.0;" x1="268" x2="446" y1="62.6855" y2="62.6855"/><text fill="#000000" font-family="sans-serif" font-size="11" lengthAdjust="spacingAndGlyphs" textLength="136" x="273" y="77.3203">"name" : "VARCHAR(255)"</text><text fill="#000000" font-family="sans-serif" font-size="11" lengthAdjust="spacingAndGlyphs" textLength="168" x="273" y="90.2754">"description" : "VARCHAR(255)"</text><text fill="#000000" font-family="sans-serif" font-size="11" lengthAdjust="spacingAndGlyphs" textLength="161" x="273" y="103.2305">"project_id" : "VARCHAR(255)"</text><text fill="#000000" font-family="sans-serif" font-size="11" lengthAdjust="spacingAndGlyphs" textLength="147" x="273" y="116.1855">"user_id" : "VARCHAR(255)"</text><text fill="#000000" font-family="sans-serif" font-size="11" lengthAdjust="spacingAndGlyphs" textLength="100" x="273" y="129.1406">"status" : "STATUS"</text><!--class app_user--><rect fill="#FEFECE" filter="url(#f9the76)" height="99.8203" style="stroke: #A80036; stroke-width: 1.5;" width="203" x="196.5" y="320.7305"/><ellipse cx="266.75" cy="336.7305" fill="#ADD1B2" rx="11" ry="11" style="stroke: #A80036; stroke-width: 1.0;"/><path d="M270.8643,342.7305 L263.1445,342.7305 L263.1445,330.3374 L270.8643,330.3374 L270.8643,332.4956 L265.5933,332.4956 L265.5933,335.1685 L270.3662,335.1685 L270.3662,337.3267 L265.5933,337.3267 L265.5933,340.5723 L270.8643,340.5723 Z "/><text fill="#000000" font-family="sans-serif" font-size="12" lengthAdjust="spacingAndGlyphs" textLength="54" x="287.25" y="341.2656">app_user</text><line style="stroke: #A80036; stroke-width: 1.5;" x1="197.5" x2="398.5" y1="352.7305" y2="352.7305"/><ellipse cx="207.5" cy="364.708" fill="#000000" rx="3" ry="3" style="stroke: #000000; stroke-width: 1.0;"/><text fill="#000000" font-family="sans-serif" font-size="11" lengthAdjust="spacingAndGlyphs" textLength="117" x="216.5" y="367.3652">"id" : "VARCHAR(255)"</text><line style="stroke: #A80036; stroke-width: 1.0;" x1="197.5" x2="398.5" y1="373.6855" y2="373.6855"/><text fill="#000000" font-family="sans-serif" font-size="11" lengthAdjust="spacingAndGlyphs" textLength="160" x="202.5" y="388.3203">"username" : "VARCHAR(255)"</text><text fill="#000000" font-family="sans-serif" font-size="11" lengthAdjust="spacingAndGlyphs" textLength="191" x="202.5" y="401.2754">"password_hash" : "VARCHAR(255)"</text><text fill="#000000" font-family="sans-serif" font-size="11" lengthAdjust="spacingAndGlyphs" textLength="135" x="202.5" y="414.2305">"email" : "VARCHAR(255)"</text><path d="M175.231,284.7598 C192.2979,296.5721 210.2048,308.9658 226.9024,320.5225 " fill="none" style="stroke: #A80036; stroke-width: 1.0;"/><path d="M298,284.7598 C298,296.5721 298,308.9658 298,320.5225 " fill="none" style="stroke: #A80036; stroke-width: 1.0;"/><path d="M333.0024,136.1648 C328.536,147.7852 323.8951,159.8594 319.509,171.2706 " fill="none" style="stroke: #A80036; stroke-width: 1.0;"/><path d="M387.986,136.1544 C404.984,179.4786 418.636,237.6375 397,284.7305 C390.9473,297.9048 381.7335,309.8044 371.3173,320.2434 " fill="none" style="stroke: #A80036; stroke-width: 1.0;"/></g></svg>