<?xml version="1.0" encoding="UTF-8" standalone="no"?><svg xmlns="http://www.w3.org/2000/svg" xmlns:xlink="http://www.w3.org/1999/xlink" contentScriptType="application/ecmascript" contentStyleType="text/css" height="280px" preserveAspectRatio="none" style="width:398px;height:280px;" version="1.1" viewBox="0 0 398 280" width="398px" zoomAndPan="magnify"><defs><filter height="300%" id="fk3jnhi" width="300%" x="-1" y="-1"><feGaussianBlur result="blurOut" stdDeviation="2.0"/><feColorMatrix in="blurOut" result="blurOut2" type="matrix" values="0 0 0 0 0 0 0 0 0 0 0 0 0 0 0 0 0 0 .4 0"/><feOffset dx="4.0" dy="4.0" in="blurOut2" result="blurOut3"/><feBlend in="SourceGraphic" in2="blurOut3" mode="normal"/></filter></defs><g><!--class app_project--><rect fill="#FEFECE" filter="url(#fk3jnhi)" height="112.7754" style="stroke: #A80036; stroke-width: 1.5;" width="180" x="11.5" y="16.2305"/><ellipse cx="62.25" cy="32.2305" fill="#ADD1B2" rx="11" ry="11" style="stroke: #A80036; stroke-width: 1.0;"/><path d="M66.3643,38.2305 L58.6445,38.2305 L58.6445,25.8374 L66.3643,25.8374 L66.3643,27.9956 L61.0933,27.9956 L61.0933,30.6685 L65.8662,30.6685 L65.8662,32.8267 L61.0933,32.8267 L61.0933,36.0723 L66.3643,36.0723 Z "/><text fill="#000000" font-family="sans-serif" font-size="12" lengthAdjust="spacingAndGlyphs" textLength="70" x="82.75" y="36.7656">app_project</text><line style="stroke: #A80036; stroke-width: 1.5;" x1="12.5" x2="190.5" y1="48.2305" y2="48.2305"/><ellipse cx="22.5" cy="60.208" fill="#000000" rx="3" ry="3" style="stroke: #000000; stroke-width: 1.0;"/><text fill="#000000" font-family="sans-serif" font-size="11" lengthAdjust="spacingAndGlyphs" textLength="117" x="31.5" y="62.8652">"id" : "VARCHAR(255)"</text><line style="stroke: #A80036; stroke-width: 1.0;" x1="12.5" x2="190.5" y1="69.1855" y2="69.1855"/><text fill="#000000" font-family="sans-serif" font-size="11" lengthAdjust="spacingAndGlyphs" textLength="136" x="17.5" y="83.8203">"name" : "VARCHAR(255)"</text><text fill="#000000" font-family="sans-serif" font-size="11" lengthAdjust="spacingAndGlyphs" textLength="168" x="17.5" y="96.7754">"description" : "VARCHAR(255)"</text><text fill="#000000" font-family="sans-serif" font-size="11" lengthAdjust="spacingAndGlyphs" textLength="147" x="17.5" y="109.7305">"user_id" : "VARCHAR(255)"</text><text fill="#000000" font-family="sans-serif" font-size="11" lengthAdjust="spacingAndGlyphs" textLength="100" x="17.5" y="122.6855">"status" : "STATUS"</text><!--class app_task--><rect fill="#FEFECE" filter="url(#fk3jnhi)" height="125.7305" style="stroke: #A80036; stroke-width: 1.5;" width="180" x="209.5" y="9.7305"/><ellipse cx="268.75" cy="25.7305" fill="#ADD1B2" rx="11" ry="11" style="stroke: #A80036; stroke-width: 1.0;"/><path d="M272.8643,31.7305 L265.1445,31.7305 L265.1445,19.3374 L272.8643,19.3374 L272.8643,21.4956 L267.5933,21.4956 L267.5933,24.1685 L272.3662,24.1685 L272.3662,26.3267 L267.5933,26.3267 L267.5933,29.5723 L272.8643,29.5723 Z "/><text fill="#000000" font-family="sans-serif" font-size="12" lengthAdjust="spacingAndGlyphs" textLength="53" x="289.25" y="30.2656">app_task</text><line style="stroke: #A80036; stroke-width: 1.5;" x1="210.5" x2="388.5" y1="41.7305" y2="41.7305"/><ellipse cx="220.5" cy="53.708" fill="#000000" rx="3" ry="3" style="stroke: #000000; stroke-width: 1.0;"/><text fill="#000000" font-family="sans-serif" font-size="11" lengthAdjust="spacingAndGlyphs" textLength="117" x="229.5" y="56.3652">"id" : "VARCHAR(255)"</text><line style="stroke: #A80036; stroke-width: 1.0;" x1="210.5" x2="388.5" y1="62.6855" y2="62.6855"/><text fill="#000000" font-family="sans-serif" font-size="11" lengthAdjust="spacingAndGlyphs" textLength="136" x="215.5" y="77.3203">"name" : "VARCHAR(255)"</text><text fill="#000000" font-family="sans-serif" font-size="11" lengthAdjust="spacingAndGlyphs" textLength="168" x="215.5" y="90.2754">"description" : "VARCHAR(255)"</text><text fill="#000000" font-family="sans-serif" font-size="11" lengthAdjust="spacingAndGlyphs" textLength="161" x="215.5" y="103.2305">"project_id" : "VARCHAR(255)"</text><text fill="#000000" font-family="sans-serif" font-size="11" lengthAdjust="spacingAndGlyphs" textLength="147" x="215.5" y="116.1855">"user_id" : "VARCHAR(255)"</text><text fill="#000000" font-family="sans-serif" font-size="11" lengthAdjust="spacingAndGlyphs" textLength="100" x="215.5" y="129.1406">"status" : "STATUS"</text><!--class app_user--><rect fill="#FEFECE" filter="url(#fk3jnhi)" height="99.8203" style="stroke: #A80036; stroke-width: 1.5;" width="203" x="0" y="171.7305"/><ellipse cx="70.25" cy="187.7305" fill="#ADD1B2" rx="11" ry="11" style="stroke: #A80036; stroke-width: 1.0;"/><path d="M74.3643,193.7305 L66.6445,193.7305 L66.6445,181.3374 L74.3643,181.3374 L74.3643,183.4956 L69.0933,183.4956 L69.0933,186.1685 L73.8662,186.1685 L73.8662,188.3267 L69.0933,188.3267 L69.0933,191.5723 L74.3643,191.5723 Z "/><text fill="#000000" font-family="sans-serif" font-size="12" lengthAdjust="spacingAndGlyphs" textLength="54" x="90.75" y="192.2656">app_user</text><line style="stroke: #A80036; stroke-width: 1.5;" x1="1" x2="202" y1="203.7305" y2="203.7305"/><ellipse cx="11" cy="215.708" fill="#000000" rx="3" ry="3" style="stroke: #000000; stroke-width: 1.0;"/><text fill="#000000" font-family="sans-serif" font-size="11" lengthAdjust="spacingAndGlyphs" textLength="117" x="20" y="218.3652">"id" : "VARCHAR(255)"</text><line style="stroke: #A80036; stroke-width: 1.0;" x1="1" x2="202" y1="224.6855" y2="224.6855"/><text fill="#000000" font-family="sans-serif" font-size="11" lengthAdjust="spacingAndGlyphs" textLength="160" x="6" y="239.3203">"username" : "VARCHAR(255)"</text><text fill="#000000" font-family="sans-serif" font-size="11" lengthAdjust="spacingAndGlyphs" textLength="191" x="6" y="252.2754">"password_hash" : "VARCHAR(255)"</text><text fill="#000000" font-family="sans-serif" font-size="11" lengthAdjust="spacingAndGlyphs" textLength="135" x="6" y="265.2305">"email" : "VARCHAR(255)"</text><path d="M191.6055,72.7305 C197.506,72.7305 203.4064,72.7305 209.3069,72.7305 " fill="none" style="stroke: #A80036; stroke-width: 1.0;"/><path d="M101.5,129.3049 C101.5,143.1266 101.5,157.849 101.5,171.3503 " fill="none" style="stroke: #A80036; stroke-width: 1.0;"/></g></svg>