<?xml version="1.0" encoding="UTF-8" standalone="no"?><svg xmlns="http://www.w3.org/2000/svg" xmlns:xlink="http://www.w3.org/1999/xlink" contentScriptType="application/ecmascript" contentStyleType="text/css" height="429px" preserveAspectRatio="none" style="width:259px;height:429px;" version="1.1" viewBox="0 0 259 429" width="259px" zoomAndPan="magnify"><defs><filter height="300%" id="f0g07fo" width="300%" x="-1" y="-1"><feGaussianBlur result="blurOut" stdDeviation="2.0"/><feColorMatrix in="blurOut" result="blurOut2" type="matrix" values="0 0 0 0 0 0 0 0 0 0 0 0 0 0 0 0 0 0 .4 0"/><feOffset dx="4.0" dy="4.0" in="blurOut2" result="blurOut3"/><feBlend in="SourceGraphic" in2="blurOut3" mode="normal"/></filter></defs><g><!--class app_project--><rect fill="#FEFECE" filter="url(#f0g07fo)" height="112.7754" style="stroke: #A80036; stroke-width: 1.5;" width="180" x="0" y="171.7305"/><ellipse cx="50.75" cy="187.7305" fill="#ADD1B2" rx="11" ry="11" style="stroke: #A80036; stroke-width: 1.0;"/><path d="M54.8643,193.7305 L47.1445,193.7305 L47.1445,181.3374 L54.8643,181.3374 L54.8643,183.4956 L49.5933,183.4956 L49.5933,186.1685 L54.3662,186.1685 L54.3662,188.3267 L49.5933,188.3267 L49.5933,191.5723 L54.8643,191.5723 Z "/><text fill="#000000" font-family="sans-serif" font-size="12" lengthAdjust="spacingAndGlyphs" textLength="70" x="71.25" y="192.2656">app_project</text><line style="stroke: #A80036; stroke-width: 1.5;" x1="1" x2="179" y1="203.7305" y2="203.7305"/><ellipse cx="11" cy="215.708" fill="#000000" rx="3" ry="3" style="stroke: #000000; stroke-width: 1.0;"/><text fill="#000000" font-family="sans-serif" font-size="11" lengthAdjust="spacingAndGlyphs" textLength="117" x="20" y="218.3652">"id" : "VARCHAR(255)"</text><line style="stroke: #A80036; stroke-width: 1.0;" x1="1" x2="179" y1="224.6855" y2="224.6855"/><text fill="#000000" font-family="sans-serif" font-size="11" lengthAdjust="spacingAndGlyphs" textLength="136" x="6" y="239.3203">"name" : "VARCHAR(255)"</text><text fill="#000000" font-family="sans-serif" font-size="11" lengthAdjust="spacingAndGlyphs" textLength="168" x="6" y="252.2754">"description" : "VARCHAR(255)"</text><text fill="#000000" font-family="sans-serif" font-size="11" lengthAdjust="spacingAndGlyphs" textLength="147" x="6" y="265.2305">"user_id" : "VARCHAR(255)"</text><text fill="#000000" font-family="sans-serif" font-size="11" lengthAdjust="spacingAndGlyphs" textLength="100" x="6" y="278.1855">"status" : "STATUS"</text><!--class app_task--><rect fill="#FEFECE" filter="url(#f0g07fo)" height="125.7305" style="stroke: #A80036; stroke-width: 1.5;" width="180" x="59" y="9.7305"/><ellipse cx="118.25" cy="25.7305" fill="#ADD1B2" rx="11" ry="11" style="stroke: #A80036; stroke-width: 1.0;"/><path d="M122.3643,31.7305 L114.6445,31.7305 L114.6445,19.3374 L122.3643,19.3374 L122.3643,21.4956 L117.0933,21.4956 L117.0933,24.1685 L121.8662,24.1685 L121.8662,26.3267 L117.0933,26.3267 L117.0933,29.5723 L122.3643,29.5723 Z "/><text fill="#000000" font-family="sans-serif" font-size="12" lengthAdjust="spacingAndGlyphs" textLength="53" x="138.75" y="30.2656">app_task</text><line style="stroke: #A80036; stroke-width: 1.5;" x1="60" x2="238" y1="41.7305" y2="41.7305"/><ellipse cx="70" cy="53.708" fill="#000000" rx="3" ry="3" style="stroke: #000000; stroke-width: 1.0;"/><text fill="#000000" font-family="sans-serif" font-size="11" lengthAdjust="spacingAndGlyphs" textLength="117" x="79" y="56.3652">"id" : "VARCHAR(255)"</text><line style="stroke: #A80036; stroke-width: 1.0;" x1="60" x2="238" y1="62.6855" y2="62.6855"/><text fill="#000000" font-family="sans-serif" font-size="11" lengthAdjust="spacingAndGlyphs" textLength="136" x="65" y="77.3203">"name" : "VARCHAR(255)"</text><text fill="#000000" font-family="sans-serif" font-size="11" lengthAdjust="spacingAndGlyphs" textLength="168" x="65" y="90.2754">"description" : "VARCHAR(255)"</text><text fill="#000000" font-family="sans-serif" font-size="11" lengthAdjust="spacingAndGlyphs" textLength="161" x="65" y="103.2305">"project_id" : "VARCHAR(255)"</text><text fill="#000000" font-family="sans-serif" font-size="11" lengthAdjust="spacingAndGlyphs" textLength="147" x="65" y="116.1855">"user_id" : "VARCHAR(255)"</text><text fill="#000000" font-family="sans-serif" font-size="11" lengthAdjust="spacingAndGlyphs" textLength="100" x="65" y="129.1406">"status" : "STATUS"</text><!--class app_user--><rect fill="#FEFECE" filter="url(#f0g07fo)" height="99.8203" style="stroke: #A80036; stroke-width: 1.5;" width="203" x="47.5" y="320.7305"/><ellipse cx="117.75" cy="336.7305" fill="#ADD1B2" rx="11" ry="11" style="stroke: #A80036; stroke-width: 1.0;"/><path d="M121.8643,342.7305 L114.1445,342.7305 L114.1445,330.3374 L121.8643,330.3374 L121.8643,332.4956 L116.5933,332.4956 L116.5933,335.1685 L121.3662,335.1685 L121.3662,337.3267 L116.5933,337.3267 L116.5933,340.5723 L121.8643,340.5723 Z "/><text fill="#000000" font-family="sans-serif" font-size="12" lengthAdjust="spacingAndGlyphs" textLength="54" x="138.25" y="341.2656">app_user</text><line style="stroke: #A80036; stroke-width: 1.5;" x1="48.5" x2="249.5" y1="352.7305" y2="352.7305"/><ellipse cx="58.5" cy="364.708" fill="#000000" rx="3" ry="3" style="stroke: #000000; stroke-width: 1.0;"/><text fill="#000000" font-family="sans-serif" font-size="11" lengthAdjust="spacingAndGlyphs" textLength="117" x="67.5" y="367.3652">"id" : "VARCHAR(255)"</text><line style="stroke: #A80036; stroke-width: 1.0;" x1="48.5" x2="249.5" y1="373.6855" y2="373.6855"/><text fill="#000000" font-family="sans-serif" font-size="11" lengthAdjust="spacingAndGlyphs" textLength="160" x="53.5" y="388.3203">"username" : "VARCHAR(255)"</text><text fill="#000000" font-family="sans-serif" font-size="11" lengthAdjust="spacingAndGlyphs" textLength="191" x="53.5" y="401.2754">"password_hash" : "VARCHAR(255)"</text><text fill="#000000" font-family="sans-serif" font-size="11" lengthAdjust="spacingAndGlyphs" textLength="135" x="53.5" y="414.2305">"email" : "VARCHAR(255)"</text><path d="M113.3184,284.7598 C118.2787,296.5721 123.4832,308.9658 128.3362,320.5225 " fill="none" style="stroke: #A80036; stroke-width: 1.0;"/><path d="M125.0024,136.1648 C120.536,147.7852 115.8951,159.8594 111.509,171.2706 " fill="none" style="stroke: #A80036; stroke-width: 1.0;"/><path d="M178.5356,135.8801 C182.8747,147.5503 186.6646,159.8289 189,171.7305 C198.6704,221.0129 199.9561,235.7179 189,284.7305 C186.296,296.827 181.6721,309.2326 176.5066,320.6978 " fill="none" style="stroke: #A80036; stroke-width: 1.0;"/></g></svg>