<?xml version="1.0" encoding="UTF-8" standalone="no"?><svg xmlns="http://www.w3.org/2000/svg" xmlns:xlink="http://www.w3.org/1999/xlink" contentScriptType="application/ecmascript" contentStyleType="text/css" height="546px" preserveAspectRatio="none" style="width:579px;height:546px;" version="1.1" viewBox="0 0 579 546" width="579px" zoomAndPan="magnify"><defs><filter height="300%" id="fyr3ll8" width="300%" x="-1" y="-1"><feGaussianBlur result="blurOut" stdDeviation="2.0"/><feColorMatrix in="blurOut" result="blurOut2" type="matrix" values="0 0 0 0 0 0 0 0 0 0 0 0 0 0 0 0 0 0 .4 0"/><feOffset dx="4.0" dy="4.0" in="blurOut2" result="blurOut3"/><feBlend in="SourceGraphic" in2="blurOut3" mode="normal"/></filter></defs><g><!--class app_profile--><rect fill="#FEFECE" filter="url(#fyr3ll8)" height="151.6406" style="stroke: #A80036; stroke-width: 1.5;" width="239" x="0" y="210.5957"/><ellipse cx="88.25" cy="226.5957" fill="#ADD1B2" rx="11" ry="11" style="stroke: #A80036; stroke-width: 1.0;"/><path d="M92.3643,232.5957 L84.6445,232.5957 L84.6445,220.2026 L92.3643,220.2026 L92.3643,222.3608 L87.0933,222.3608 L87.0933,225.0337 L91.8662,225.0337 L91.8662,227.1919 L87.0933,227.1919 L87.0933,230.4375 L92.3643,230.4375 Z "/><text fill="#000000" font-family="sans-serif" font-size="12" lengthAdjust="spacingAndGlyphs" textLength="54" x="108.75" y="231.1309">Профиль</text><line style="stroke: #A80036; stroke-width: 1.5;" x1="1" x2="238" y1="242.5957" y2="242.5957"/><ellipse cx="11" cy="254.5732" fill="#000000" rx="3" ry="3" style="stroke: #000000; stroke-width: 1.0;"/><text fill="#000000" font-family="sans-serif" font-size="11" lengthAdjust="spacingAndGlyphs" textLength="151" x="20" y="257.2305">"Идентификатор" : "Строка"</text><line style="stroke: #A80036; stroke-width: 1.0;" x1="1" x2="238" y1="263.5508" y2="263.5508"/><text fill="#000000" font-family="sans-serif" font-size="11" lengthAdjust="spacingAndGlyphs" textLength="227" x="6" y="278.1855">"Идентификатор пользователя" : "Строка"</text><text fill="#000000" font-family="sans-serif" font-size="11" lengthAdjust="spacingAndGlyphs" textLength="86" x="6" y="291.1406">"Имя" : "Строка"</text><text fill="#000000" font-family="sans-serif" font-size="11" lengthAdjust="spacingAndGlyphs" textLength="112" x="6" y="304.0957">"Фамилия" : "Строка"</text><text fill="#000000" font-family="sans-serif" font-size="11" lengthAdjust="spacingAndGlyphs" textLength="114" x="6" y="317.0508">"Отчество" : "Строка"</text><text fill="#000000" font-family="sans-serif" font-size="11" lengthAdjust="spacingAndGlyphs" textLength="150" x="6" y="330.0059">"Версия" : "Целочисленный"</text><text fill="#000000" font-family="sans-serif" font-size="11" lengthAdjust="spacingAndGlyphs" textLength="168" x="6" y="342.9609">"Дата создания" : "Дата/Время"</text><text fill="#000000" font-family="sans-serif" font-size="11" lengthAdjust="spacingAndGlyphs" textLength="183" x="6" y="355.916">"Дата обновления" : "Дата/Время"</text><!--class app_project--><rect fill="#FEFECE" filter="url(#fyr3ll8)" height="151.6406" style="stroke: #A80036; stroke-width: 1.5;" width="239" x="257" y="210.5957"/><ellipse cx="350.25" cy="226.5957" fill="#ADD1B2" rx="11" ry="11" style="stroke: #A80036; stroke-width: 1.0;"/><path d="M354.3643,232.5957 L346.6445,232.5957 L346.6445,220.2026 L354.3643,220.2026 L354.3643,222.3608 L349.0933,222.3608 L349.0933,225.0337 L353.8662,225.0337 L353.8662,227.1919 L349.0933,227.1919 L349.0933,230.4375 L354.3643,230.4375 Z "/><text fill="#000000" font-family="sans-serif" font-size="12" lengthAdjust="spacingAndGlyphs" textLength="44" x="370.75" y="231.1309">Проект</text><line style="stroke: #A80036; stroke-width: 1.5;" x1="258" x2="495" y1="242.5957" y2="242.5957"/><ellipse cx="268" cy="254.5732" fill="#000000" rx="3" ry="3" style="stroke: #000000; stroke-width: 1.0;"/><text fill="#000000" font-family="sans-serif" font-size="11" lengthAdjust="spacingAndGlyphs" textLength="151" x="277" y="257.2305">"Идентификатор" : "Строка"</text><line style="stroke: #A80036; stroke-width: 1.0;" x1="258" x2="495" y1="263.5508" y2="263.5508"/><text fill="#000000" font-family="sans-serif" font-size="11" lengthAdjust="spacingAndGlyphs" textLength="115" x="263" y="278.1855">"Название" : "Строка"</text><text fill="#000000" font-family="sans-serif" font-size="11" lengthAdjust="spacingAndGlyphs" textLength="119" x="263" y="291.1406">"Описание" : "Строка"</text><text fill="#000000" font-family="sans-serif" font-size="11" lengthAdjust="spacingAndGlyphs" textLength="227" x="263" y="304.0957">"Идентификатор пользователя" : "Строка"</text><text fill="#000000" font-family="sans-serif" font-size="11" lengthAdjust="spacingAndGlyphs" textLength="103" x="263" y="317.0508">"Статус" : "STATUS"</text><text fill="#000000" font-family="sans-serif" font-size="11" lengthAdjust="spacingAndGlyphs" textLength="150" x="263" y="330.0059">"Версия" : "Целочисленный"</text><text fill="#000000" font-family="sans-serif" font-size="11" lengthAdjust="spacingAndGlyphs" textLength="168" x="263" y="342.9609">"Дата создания" : "Дата/Время"</text><text fill="#000000" font-family="sans-serif" font-size="11" lengthAdjust="spacingAndGlyphs" textLength="183" x="263" y="355.916">"Дата обновления" : "Дата/Время"</text><!--class app_task--><rect fill="#FEFECE" filter="url(#fyr3ll8)" height="164.5957" style="stroke: #A80036; stroke-width: 1.5;" width="239" x="331" y="9.5957"/><ellipse cx="425.75" cy="25.5957" fill="#ADD1B2" rx="11" ry="11" style="stroke: #A80036; stroke-width: 1.0;"/><path d="M429.8643,31.5957 L422.1445,31.5957 L422.1445,19.2026 L429.8643,19.2026 L429.8643,21.3608 L424.5933,21.3608 L424.5933,24.0337 L429.3662,24.0337 L429.3662,26.1919 L424.5933,26.1919 L424.5933,29.4375 L429.8643,29.4375 Z "/><text fill="#000000" font-family="sans-serif" font-size="12" lengthAdjust="spacingAndGlyphs" textLength="41" x="446.25" y="30.1309">Задача</text><line style="stroke: #A80036; stroke-width: 1.5;" x1="332" x2="569" y1="41.5957" y2="41.5957"/><ellipse cx="342" cy="53.5732" fill="#000000" rx="3" ry="3" style="stroke: #000000; stroke-width: 1.0;"/><text fill="#000000" font-family="sans-serif" font-size="11" lengthAdjust="spacingAndGlyphs" textLength="151" x="351" y="56.2305">"Идентификатор" : "Строка"</text><line style="stroke: #A80036; stroke-width: 1.0;" x1="332" x2="569" y1="62.5508" y2="62.5508"/><text fill="#000000" font-family="sans-serif" font-size="11" lengthAdjust="spacingAndGlyphs" textLength="115" x="337" y="77.1855">"Название" : "Строка"</text><text fill="#000000" font-family="sans-serif" font-size="11" lengthAdjust="spacingAndGlyphs" textLength="119" x="337" y="90.1406">"Описание" : "Строка"</text><text fill="#000000" font-family="sans-serif" font-size="11" lengthAdjust="spacingAndGlyphs" textLength="198" x="337" y="103.0957">"Идентификатор проекта" : "Строка"</text><text fill="#000000" font-family="sans-serif" font-size="11" lengthAdjust="spacingAndGlyphs" textLength="227" x="337" y="116.0508">"Идентификатор пользователя" : "Строка"</text><text fill="#000000" font-family="sans-serif" font-size="11" lengthAdjust="spacingAndGlyphs" textLength="103" x="337" y="129.0059">"Статус" : "STATUS"</text><text fill="#000000" font-family="sans-serif" font-size="11" lengthAdjust="spacingAndGlyphs" textLength="150" x="337" y="141.9609">"Версия" : "Целочисленный"</text><text fill="#000000" font-family="sans-serif" font-size="11" lengthAdjust="spacingAndGlyphs" textLength="168" x="337" y="154.916">"Дата создания" : "Дата/Время"</text><text fill="#000000" font-family="sans-serif" font-size="11" lengthAdjust="spacingAndGlyphs" textLength="183" x="337" y="167.8711">"Дата обновления" : "Дата/Время"</text><!--class app_user--><rect fill="#FEFECE" filter="url(#fyr3ll8)" height="138.6855" style="stroke: #A80036; stroke-width: 1.5;" width="195" x="279" y="398.5957"/><ellipse cx="331.75" cy="414.5957" fill="#ADD1B2" rx="11" ry="11" style="stroke: #A80036; stroke-width: 1.0;"/><path d="M335.8643,420.5957 L328.1445,420.5957 L328.1445,408.2026 L335.8643,408.2026 L335.8643,410.3608 L330.5933,410.3608 L330.5933,413.0337 L335.3662,413.0337 L335.3662,415.1919 L330.5933,415.1919 L330.5933,418.4375 L335.8643,418.4375 Z "/><text fill="#000000" font-family="sans-serif" font-size="12" lengthAdjust="spacingAndGlyphs" textLength="81" x="352.25" y="419.1309">Пользователь</text><line style="stroke: #A80036; stroke-width: 1.5;" x1="280" x2="473" y1="430.5957" y2="430.5957"/><ellipse cx="290" cy="442.5732" fill="#000000" rx="3" ry="3" style="stroke: #000000; stroke-width: 1.0;"/><text fill="#000000" font-family="sans-serif" font-size="11" lengthAdjust="spacingAndGlyphs" textLength="74" x="299" y="445.2305">"id" : "Строка"</text><line style="stroke: #A80036; stroke-width: 1.0;" x1="280" x2="473" y1="451.5508" y2="451.5508"/><text fill="#000000" font-family="sans-serif" font-size="11" lengthAdjust="spacingAndGlyphs" textLength="162" x="285" y="466.1855">"Имя пользователя" : "Строка"</text><text fill="#000000" font-family="sans-serif" font-size="11" lengthAdjust="spacingAndGlyphs" textLength="128" x="285" y="479.1406">"Хеш пароля" : "Строка"</text><text fill="#000000" font-family="sans-serif" font-size="11" lengthAdjust="spacingAndGlyphs" textLength="98" x="285" y="492.0957">"E-mail" : "Строка"</text><text fill="#000000" font-family="sans-serif" font-size="11" lengthAdjust="spacingAndGlyphs" textLength="150" x="285" y="505.0508">"Версия" : "Целочисленный"</text><text fill="#000000" font-family="sans-serif" font-size="11" lengthAdjust="spacingAndGlyphs" textLength="168" x="285" y="518.0059">"Дата создания" : "Дата/Время"</text><text fill="#000000" font-family="sans-serif" font-size="11" lengthAdjust="spacingAndGlyphs" textLength="183" x="285" y="530.9609">"Дата обновления" : "Дата/Время"</text><path d="M227.002,362.6798 C244.1956,374.6885 261.9046,387.0573 278.8526,398.8945 " fill="none" style="stroke: #A80036; stroke-width: 1.0;"/><path d="M376.5,362.6798 C376.5,374.4964 376.5,386.6616 376.5,398.3259 " fill="none" style="stroke: #A80036; stroke-width: 1.0;"/><path d="M419.1173,174.733 C414.5479,186.6198 409.8614,198.8111 405.3454,210.5586 " fill="none" style="stroke: #A80036; stroke-width: 1.0;"/><path d="M492.581,174.7683 C514.9629,229.971 532.6288,303.3186 504.5,362.5957 C497.1823,378.0166 486.3516,391.9143 474.0363,404.1637 " fill="none" style="stroke: #A80036; stroke-width: 1.0;"/></g></svg>