<?xml version="1.0" encoding="UTF-8" standalone="no"?><svg xmlns="http://www.w3.org/2000/svg" xmlns:xlink="http://www.w3.org/1999/xlink" contentScriptType="application/ecmascript" contentStyleType="text/css" height="624px" preserveAspectRatio="none" style="width:579px;height:624px;" version="1.1" viewBox="0 0 579 624" width="579px" zoomAndPan="magnify"><defs><filter height="300%" id="fah5tcn" width="300%" x="-1" y="-1"><feGaussianBlur result="blurOut" stdDeviation="2.0"/><feColorMatrix in="blurOut" result="blurOut2" type="matrix" values="0 0 0 0 0 0 0 0 0 0 0 0 0 0 0 0 0 0 .4 0"/><feOffset dx="4.0" dy="4.0" in="blurOut2" result="blurOut3"/><feBlend in="SourceGraphic" in2="blurOut3" mode="normal"/></filter></defs><g><!--class app_profile--><rect fill="#FEFECE" filter="url(#fah5tcn)" height="177.5508" style="stroke: #A80036; stroke-width: 1.5;" width="239" x="0" y="236.5059"/><ellipse cx="88.25" cy="252.5059" fill="#ADD1B2" rx="11" ry="11" style="stroke: #A80036; stroke-width: 1.0;"/><path d="M92.3643,258.5059 L84.6445,258.5059 L84.6445,246.1128 L92.3643,246.1128 L92.3643,248.271 L87.0933,248.271 L87.0933,250.9438 L91.8662,250.9438 L91.8662,253.1021 L87.0933,253.1021 L87.0933,256.3477 L92.3643,256.3477 Z "/><text fill="#000000" font-family="sans-serif" font-size="12" lengthAdjust="spacingAndGlyphs" textLength="54" x="108.75" y="257.041">Профиль</text><line style="stroke: #A80036; stroke-width: 1.5;" x1="1" x2="238" y1="268.5059" y2="268.5059"/><ellipse cx="11" cy="280.4834" fill="#000000" rx="3" ry="3" style="stroke: #000000; stroke-width: 1.0;"/><text fill="#000000" font-family="sans-serif" font-size="11" lengthAdjust="spacingAndGlyphs" textLength="151" x="20" y="283.1406">"Идентификатор" : "Строка"</text><line style="stroke: #A80036; stroke-width: 1.0;" x1="1" x2="238" y1="289.4609" y2="289.4609"/><text fill="#000000" font-family="sans-serif" font-size="11" lengthAdjust="spacingAndGlyphs" textLength="227" x="6" y="304.0957">"Идентификатор пользователя" : "Строка"</text><text fill="#000000" font-family="sans-serif" font-size="11" lengthAdjust="spacingAndGlyphs" textLength="86" x="6" y="317.0508">"Имя" : "Строка"</text><text fill="#000000" font-family="sans-serif" font-size="11" lengthAdjust="spacingAndGlyphs" textLength="112" x="6" y="330.0059">"Фамилия" : "Строка"</text><text fill="#000000" font-family="sans-serif" font-size="11" lengthAdjust="spacingAndGlyphs" textLength="114" x="6" y="342.9609">"Отчество" : "Строка"</text><text fill="#000000" font-family="sans-serif" font-size="11" lengthAdjust="spacingAndGlyphs" textLength="150" x="6" y="355.916">"Версия" : "Целочисленный"</text><text fill="#000000" font-family="sans-serif" font-size="11" lengthAdjust="spacingAndGlyphs" textLength="169" x="6" y="368.8711">"Флаг удаления" : "Логический"</text><text fill="#000000" font-family="sans-serif" font-size="11" lengthAdjust="spacingAndGlyphs" textLength="168" x="6" y="381.8262">"Дата создания" : "Дата/Время"</text><text fill="#000000" font-family="sans-serif" font-size="11" lengthAdjust="spacingAndGlyphs" textLength="183" x="6" y="394.7813">"Дата обновления" : "Дата/Время"</text><text fill="#000000" font-family="sans-serif" font-size="11" lengthAdjust="spacingAndGlyphs" textLength="168" x="6" y="407.7363">"Дата удаления" : "Дата/Время"</text><!--class app_project--><rect fill="#FEFECE" filter="url(#fah5tcn)" height="177.5508" style="stroke: #A80036; stroke-width: 1.5;" width="239" x="257" y="236.5059"/><ellipse cx="350.25" cy="252.5059" fill="#ADD1B2" rx="11" ry="11" style="stroke: #A80036; stroke-width: 1.0;"/><path d="M354.3643,258.5059 L346.6445,258.5059 L346.6445,246.1128 L354.3643,246.1128 L354.3643,248.271 L349.0933,248.271 L349.0933,250.9438 L353.8662,250.9438 L353.8662,253.1021 L349.0933,253.1021 L349.0933,256.3477 L354.3643,256.3477 Z "/><text fill="#000000" font-family="sans-serif" font-size="12" lengthAdjust="spacingAndGlyphs" textLength="44" x="370.75" y="257.041">Проект</text><line style="stroke: #A80036; stroke-width: 1.5;" x1="258" x2="495" y1="268.5059" y2="268.5059"/><ellipse cx="268" cy="280.4834" fill="#000000" rx="3" ry="3" style="stroke: #000000; stroke-width: 1.0;"/><text fill="#000000" font-family="sans-serif" font-size="11" lengthAdjust="spacingAndGlyphs" textLength="151" x="277" y="283.1406">"Идентификатор" : "Строка"</text><line style="stroke: #A80036; stroke-width: 1.0;" x1="258" x2="495" y1="289.4609" y2="289.4609"/><text fill="#000000" font-family="sans-serif" font-size="11" lengthAdjust="spacingAndGlyphs" textLength="115" x="263" y="304.0957">"Название" : "Строка"</text><text fill="#000000" font-family="sans-serif" font-size="11" lengthAdjust="spacingAndGlyphs" textLength="119" x="263" y="317.0508">"Описание" : "Строка"</text><text fill="#000000" font-family="sans-serif" font-size="11" lengthAdjust="spacingAndGlyphs" textLength="227" x="263" y="330.0059">"Идентификатор пользователя" : "Строка"</text><text fill="#000000" font-family="sans-serif" font-size="11" lengthAdjust="spacingAndGlyphs" textLength="103" x="263" y="342.9609">"Статус" : "STATUS"</text><text fill="#000000" font-family="sans-serif" font-size="11" lengthAdjust="spacingAndGlyphs" textLength="150" x="263" y="355.916">"Версия" : "Целочисленный"</text><text fill="#000000" font-family="sans-serif" font-size="11" lengthAdjust="spacingAndGlyphs" textLength="169" x="263" y="368.8711">"Флаг удаления" : "Логический"</text><text fill="#000000" font-family="sans-serif" font-size="11" lengthAdjust="spacingAndGlyphs" textLength="168" x="263" y="381.8262">"Дата создания" : "Дата/Время"</text><text fill="#000000" font-family="sans-serif" font-size="11" lengthAdjust="spacingAndGlyphs" textLength="183" x="263" y="394.7813">"Дата обновления" : "Дата/Время"</text><text fill="#000000" font-family="sans-serif" font-size="11" lengthAdjust="spacingAndGlyphs" textLength="168" x="263" y="407.7363">"Дата удаления" : "Дата/Время"</text><!--class app_task--><rect fill="#FEFECE" filter="url(#fah5tcn)" height="190.5059" style="stroke: #A80036; stroke-width: 1.5;" width="239" x="331" y="9.5059"/><ellipse cx="425.75" cy="25.5059" fill="#ADD1B2" rx="11" ry="11" style="stroke: #A80036; stroke-width: 1.0;"/><path d="M429.8643,31.5059 L422.1445,31.5059 L422.1445,19.1128 L429.8643,19.1128 L429.8643,21.271 L424.5933,21.271 L424.5933,23.9438 L429.3662,23.9438 L429.3662,26.1021 L424.5933,26.1021 L424.5933,29.3477 L429.8643,29.3477 Z "/><text fill="#000000" font-family="sans-serif" font-size="12" lengthAdjust="spacingAndGlyphs" textLength="41" x="446.25" y="30.041">Задача</text><line style="stroke: #A80036; stroke-width: 1.5;" x1="332" x2="569" y1="41.5059" y2="41.5059"/><ellipse cx="342" cy="53.4834" fill="#000000" rx="3" ry="3" style="stroke: #000000; stroke-width: 1.0;"/><text fill="#000000" font-family="sans-serif" font-size="11" lengthAdjust="spacingAndGlyphs" textLength="151" x="351" y="56.1406">"Идентификатор" : "Строка"</text><line style="stroke: #A80036; stroke-width: 1.0;" x1="332" x2="569" y1="62.4609" y2="62.4609"/><text fill="#000000" font-family="sans-serif" font-size="11" lengthAdjust="spacingAndGlyphs" textLength="115" x="337" y="77.0957">"Название" : "Строка"</text><text fill="#000000" font-family="sans-serif" font-size="11" lengthAdjust="spacingAndGlyphs" textLength="119" x="337" y="90.0508">"Описание" : "Строка"</text><text fill="#000000" font-family="sans-serif" font-size="11" lengthAdjust="spacingAndGlyphs" textLength="198" x="337" y="103.0059">"Идентификатор проекта" : "Строка"</text><text fill="#000000" font-family="sans-serif" font-size="11" lengthAdjust="spacingAndGlyphs" textLength="227" x="337" y="115.9609">"Идентификатор пользователя" : "Строка"</text><text fill="#000000" font-family="sans-serif" font-size="11" lengthAdjust="spacingAndGlyphs" textLength="103" x="337" y="128.916">"Статус" : "STATUS"</text><text fill="#000000" font-family="sans-serif" font-size="11" lengthAdjust="spacingAndGlyphs" textLength="150" x="337" y="141.8711">"Версия" : "Целочисленный"</text><text fill="#000000" font-family="sans-serif" font-size="11" lengthAdjust="spacingAndGlyphs" textLength="169" x="337" y="154.8262">"Флаг удаления" : "Логический"</text><text fill="#000000" font-family="sans-serif" font-size="11" lengthAdjust="spacingAndGlyphs" textLength="168" x="337" y="167.7813">"Дата создания" : "Дата/Время"</text><text fill="#000000" font-family="sans-serif" font-size="11" lengthAdjust="spacingAndGlyphs" textLength="183" x="337" y="180.7363">"Дата обновления" : "Дата/Время"</text><text fill="#000000" font-family="sans-serif" font-size="11" lengthAdjust="spacingAndGlyphs" textLength="168" x="337" y="193.6914">"Дата удаления" : "Дата/Время"</text><!--class app_user--><rect fill="#FEFECE" filter="url(#fah5tcn)" height="164.5957" style="stroke: #A80036; stroke-width: 1.5;" width="195" x="279" y="450.5059"/><ellipse cx="331.75" cy="466.5059" fill="#ADD1B2" rx="11" ry="11" style="stroke: #A80036; stroke-width: 1.0;"/><path d="M335.8643,472.5059 L328.1445,472.5059 L328.1445,460.1128 L335.8643,460.1128 L335.8643,462.271 L330.5933,462.271 L330.5933,464.9438 L335.3662,464.9438 L335.3662,467.1021 L330.5933,467.1021 L330.5933,470.3477 L335.8643,470.3477 Z "/><text fill="#000000" font-family="sans-serif" font-size="12" lengthAdjust="spacingAndGlyphs" textLength="81" x="352.25" y="471.041">Пользователь</text><line style="stroke: #A80036; stroke-width: 1.5;" x1="280" x2="473" y1="482.5059" y2="482.5059"/><ellipse cx="290" cy="494.4834" fill="#000000" rx="3" ry="3" style="stroke: #000000; stroke-width: 1.0;"/><text fill="#000000" font-family="sans-serif" font-size="11" lengthAdjust="spacingAndGlyphs" textLength="74" x="299" y="497.1406">"id" : "Строка"</text><line style="stroke: #A80036; stroke-width: 1.0;" x1="280" x2="473" y1="503.4609" y2="503.4609"/><text fill="#000000" font-family="sans-serif" font-size="11" lengthAdjust="spacingAndGlyphs" textLength="162" x="285" y="518.0957">"Имя пользователя" : "Строка"</text><text fill="#000000" font-family="sans-serif" font-size="11" lengthAdjust="spacingAndGlyphs" textLength="128" x="285" y="531.0508">"Хеш пароля" : "Строка"</text><text fill="#000000" font-family="sans-serif" font-size="11" lengthAdjust="spacingAndGlyphs" textLength="98" x="285" y="544.0059">"E-mail" : "Строка"</text><text fill="#000000" font-family="sans-serif" font-size="11" lengthAdjust="spacingAndGlyphs" textLength="150" x="285" y="556.9609">"Версия" : "Целочисленный"</text><text fill="#000000" font-family="sans-serif" font-size="11" lengthAdjust="spacingAndGlyphs" textLength="169" x="285" y="569.916">"Флаг удаления" : "Логический"</text><text fill="#000000" font-family="sans-serif" font-size="11" lengthAdjust="spacingAndGlyphs" textLength="168" x="285" y="582.8711">"Дата создания" : "Дата/Время"</text><text fill="#000000" font-family="sans-serif" font-size="11" lengthAdjust="spacingAndGlyphs" textLength="183" x="285" y="595.8262">"Дата обновления" : "Дата/Время"</text><text fill="#000000" font-family="sans-serif" font-size="11" lengthAdjust="spacingAndGlyphs" textLength="168" x="285" y="608.7813">"Дата удаления" : "Дата/Время"</text><path d="M229.6095,414.5506 C245.9582,427.6232 262.7123,441.02 278.7838,453.8709 " fill="none" style="stroke: #A80036; stroke-width: 1.0;"/><path d="M376.5,414.5506 C376.5,426.4249 376.5,438.5666 376.5,450.3238 " fill="none" style="stroke: #A80036; stroke-width: 1.0;"/><path d="M418.4729,200.5723 C414.4496,212.452 410.3464,224.5675 406.3583,236.3433 " fill="none" style="stroke: #A80036; stroke-width: 1.0;"/><path d="M494.4595,200.8423 C517.0893,263.6671 534.3068,346.683 504.5,414.5059 C497.2786,430.9375 486.4995,446.0784 474.2065,459.6408 " fill="none" style="stroke: #A80036; stroke-width: 1.0;"/></g></svg>