<?xml version="1.0" encoding="UTF-8" standalone="no"?><svg xmlns="http://www.w3.org/2000/svg" xmlns:xlink="http://www.w3.org/1999/xlink" contentScriptType="application/ecmascript" contentStyleType="text/css" height="429px" preserveAspectRatio="none" style="width:579px;height:429px;" version="1.1" viewBox="0 0 579 429" width="579px" zoomAndPan="magnify"><defs><filter height="300%" id="fyna7yq" width="300%" x="-1" y="-1"><feGaussianBlur result="blurOut" stdDeviation="2.0"/><feColorMatrix in="blurOut" result="blurOut2" type="matrix" values="0 0 0 0 0 0 0 0 0 0 0 0 0 0 0 0 0 0 .4 0"/><feOffset dx="4.0" dy="4.0" in="blurOut2" result="blurOut3"/><feBlend in="SourceGraphic" in2="blurOut3" mode="normal"/></filter></defs><g><!--class app_profile--><rect fill="#FEFECE" filter="url(#fyna7yq)" height="112.7754" style="stroke: #A80036; stroke-width: 1.5;" width="239" x="0" y="171.7305"/><ellipse cx="88.25" cy="187.7305" fill="#ADD1B2" rx="11" ry="11" style="stroke: #A80036; stroke-width: 1.0;"/><path d="M92.3643,193.7305 L84.6445,193.7305 L84.6445,181.3374 L92.3643,181.3374 L92.3643,183.4956 L87.0933,183.4956 L87.0933,186.1685 L91.8662,186.1685 L91.8662,188.3267 L87.0933,188.3267 L87.0933,191.5723 L92.3643,191.5723 Z "/><text fill="#000000" font-family="sans-serif" font-size="12" lengthAdjust="spacingAndGlyphs" textLength="54" x="108.75" y="192.2656">Профиль</text><line style="stroke: #A80036; stroke-width: 1.5;" x1="1" x2="238" y1="203.7305" y2="203.7305"/><ellipse cx="11" cy="215.708" fill="#000000" rx="3" ry="3" style="stroke: #000000; stroke-width: 1.0;"/><text fill="#000000" font-family="sans-serif" font-size="11" lengthAdjust="spacingAndGlyphs" textLength="151" x="20" y="218.3652">"Идентификатор" : "Строка"</text><line style="stroke: #A80036; stroke-width: 1.0;" x1="1" x2="238" y1="224.6855" y2="224.6855"/><text fill="#000000" font-family="sans-serif" font-size="11" lengthAdjust="spacingAndGlyphs" textLength="227" x="6" y="239.3203">"Идентификатор пользователя" : "Строка"</text><text fill="#000000" font-family="sans-serif" font-size="11" lengthAdjust="spacingAndGlyphs" textLength="86" x="6" y="252.2754">"Имя" : "Строка"</text><text fill="#000000" font-family="sans-serif" font-size="11" lengthAdjust="spacingAndGlyphs" textLength="112" x="6" y="265.2305">"Фамилия" : "Строка"</text><text fill="#000000" font-family="sans-serif" font-size="11" lengthAdjust="spacingAndGlyphs" textLength="114" x="6" y="278.1855">"Отчество" : "Строка"</text><!--class app_project--><rect fill="#FEFECE" filter="url(#fyna7yq)" height="112.7754" style="stroke: #A80036; stroke-width: 1.5;" width="239" x="257" y="171.7305"/><ellipse cx="350.25" cy="187.7305" fill="#ADD1B2" rx="11" ry="11" style="stroke: #A80036; stroke-width: 1.0;"/><path d="M354.3643,193.7305 L346.6445,193.7305 L346.6445,181.3374 L354.3643,181.3374 L354.3643,183.4956 L349.0933,183.4956 L349.0933,186.1685 L353.8662,186.1685 L353.8662,188.3267 L349.0933,188.3267 L349.0933,191.5723 L354.3643,191.5723 Z "/><text fill="#000000" font-family="sans-serif" font-size="12" lengthAdjust="spacingAndGlyphs" textLength="44" x="370.75" y="192.2656">Проект</text><line style="stroke: #A80036; stroke-width: 1.5;" x1="258" x2="495" y1="203.7305" y2="203.7305"/><ellipse cx="268" cy="215.708" fill="#000000" rx="3" ry="3" style="stroke: #000000; stroke-width: 1.0;"/><text fill="#000000" font-family="sans-serif" font-size="11" lengthAdjust="spacingAndGlyphs" textLength="151" x="277" y="218.3652">"Идентификатор" : "Строка"</text><line style="stroke: #A80036; stroke-width: 1.0;" x1="258" x2="495" y1="224.6855" y2="224.6855"/><text fill="#000000" font-family="sans-serif" font-size="11" lengthAdjust="spacingAndGlyphs" textLength="115" x="263" y="239.3203">"Название" : "Строка"</text><text fill="#000000" font-family="sans-serif" font-size="11" lengthAdjust="spacingAndGlyphs" textLength="119" x="263" y="252.2754">"Описание" : "Строка"</text><text fill="#000000" font-family="sans-serif" font-size="11" lengthAdjust="spacingAndGlyphs" textLength="227" x="263" y="265.2305">"Идентификатор пользователя" : "Строка"</text><text fill="#000000" font-family="sans-serif" font-size="11" lengthAdjust="spacingAndGlyphs" textLength="103" x="263" y="278.1855">"Статус" : "STATUS"</text><!--class app_task--><rect fill="#FEFECE" filter="url(#fyna7yq)" height="125.7305" style="stroke: #A80036; stroke-width: 1.5;" width="239" x="331" y="9.7305"/><ellipse cx="425.75" cy="25.7305" fill="#ADD1B2" rx="11" ry="11" style="stroke: #A80036; stroke-width: 1.0;"/><path d="M429.8643,31.7305 L422.1445,31.7305 L422.1445,19.3374 L429.8643,19.3374 L429.8643,21.4956 L424.5933,21.4956 L424.5933,24.1685 L429.3662,24.1685 L429.3662,26.3267 L424.5933,26.3267 L424.5933,29.5723 L429.8643,29.5723 Z "/><text fill="#000000" font-family="sans-serif" font-size="12" lengthAdjust="spacingAndGlyphs" textLength="41" x="446.25" y="30.2656">Задача</text><line style="stroke: #A80036; stroke-width: 1.5;" x1="332" x2="569" y1="41.7305" y2="41.7305"/><ellipse cx="342" cy="53.708" fill="#000000" rx="3" ry="3" style="stroke: #000000; stroke-width: 1.0;"/><text fill="#000000" font-family="sans-serif" font-size="11" lengthAdjust="spacingAndGlyphs" textLength="151" x="351" y="56.3652">"Идентификатор" : "Строка"</text><line style="stroke: #A80036; stroke-width: 1.0;" x1="332" x2="569" y1="62.6855" y2="62.6855"/><text fill="#000000" font-family="sans-serif" font-size="11" lengthAdjust="spacingAndGlyphs" textLength="115" x="337" y="77.3203">"Название" : "Строка"</text><text fill="#000000" font-family="sans-serif" font-size="11" lengthAdjust="spacingAndGlyphs" textLength="119" x="337" y="90.2754">"Описание" : "Строка"</text><text fill="#000000" font-family="sans-serif" font-size="11" lengthAdjust="spacingAndGlyphs" textLength="198" x="337" y="103.2305">"Идентификатор проекта" : "Строка"</text><text fill="#000000" font-family="sans-serif" font-size="11" lengthAdjust="spacingAndGlyphs" textLength="227" x="337" y="116.1855">"Идентификатор пользователя" : "Строка"</text><text fill="#000000" font-family="sans-serif" font-size="11" lengthAdjust="spacingAndGlyphs" textLength="103" x="337" y="129.1406">"Статус" : "STATUS"</text><!--class app_user--><rect fill="#FEFECE" filter="url(#fyna7yq)" height="99.8203" style="stroke: #A80036; stroke-width: 1.5;" width="174" x="289.5" y="320.7305"/><ellipse cx="331.95" cy="336.7305" fill="#ADD1B2" rx="11" ry="11" style="stroke: #A80036; stroke-width: 1.0;"/><path d="M336.0643,342.7305 L328.3445,342.7305 L328.3445,330.3374 L336.0643,330.3374 L336.0643,332.4956 L330.7933,332.4956 L330.7933,335.1685 L335.5662,335.1685 L335.5662,337.3267 L330.7933,337.3267 L330.7933,340.5723 L336.0643,340.5723 Z "/><text fill="#000000" font-family="sans-serif" font-size="12" lengthAdjust="spacingAndGlyphs" textLength="81" x="352.05" y="341.2656">Пользователь</text><line style="stroke: #A80036; stroke-width: 1.5;" x1="290.5" x2="462.5" y1="352.7305" y2="352.7305"/><ellipse cx="300.5" cy="364.708" fill="#000000" rx="3" ry="3" style="stroke: #000000; stroke-width: 1.0;"/><text fill="#000000" font-family="sans-serif" font-size="11" lengthAdjust="spacingAndGlyphs" textLength="74" x="309.5" y="367.3652">"id" : "Строка"</text><line style="stroke: #A80036; stroke-width: 1.0;" x1="290.5" x2="462.5" y1="373.6855" y2="373.6855"/><text fill="#000000" font-family="sans-serif" font-size="11" lengthAdjust="spacingAndGlyphs" textLength="162" x="295.5" y="388.3203">"Имя пользователя" : "Строка"</text><text fill="#000000" font-family="sans-serif" font-size="11" lengthAdjust="spacingAndGlyphs" textLength="128" x="295.5" y="401.2754">"Хеш пароля" : "Строка"</text><text fill="#000000" font-family="sans-serif" font-size="11" lengthAdjust="spacingAndGlyphs" textLength="98" x="295.5" y="414.2305">"E-mail" : "Строка"</text><path d="M221.0732,284.7598 C243.6622,297.109 267.4136,310.0937 289.3627,322.0931 " fill="none" style="stroke: #A80036; stroke-width: 1.0;"/><path d="M376.5,284.7598 C376.5,296.5721 376.5,308.9658 376.5,320.5225 " fill="none" style="stroke: #A80036; stroke-width: 1.0;"/><path d="M420.4014,136.1648 C414.7994,147.7852 408.9785,159.8594 403.4774,171.2706 " fill="none" style="stroke: #A80036; stroke-width: 1.0;"/><path d="M489.3609,136.1706 C511.1571,179.768 529.4318,238.2459 504.5,284.7305 C495.0437,302.3614 480.1419,316.9574 463.7969,328.7833 " fill="none" style="stroke: #A80036; stroke-width: 1.0;"/></g></svg>