<?xml version="1.0" encoding="UTF-8" standalone="no"?><svg xmlns="http://www.w3.org/2000/svg" xmlns:xlink="http://www.w3.org/1999/xlink" contentScriptType="application/ecmascript" contentStyleType="text/css" height="585px" preserveAspectRatio="none" style="width:579px;height:585px;" version="1.1" viewBox="0 0 579 585" width="579px" zoomAndPan="magnify"><defs><filter height="300%" id="fncv162" width="300%" x="-1" y="-1"><feGaussianBlur result="blurOut" stdDeviation="2.0"/><feColorMatrix in="blurOut" result="blurOut2" type="matrix" values="0 0 0 0 0 0 0 0 0 0 0 0 0 0 0 0 0 0 .4 0"/><feOffset dx="4.0" dy="4.0" in="blurOut2" result="blurOut3"/><feBlend in="SourceGraphic" in2="blurOut3" mode="normal"/></filter></defs><g><!--class app_profile--><rect fill="#FEFECE" filter="url(#fncv162)" height="164.5957" style="stroke: #A80036; stroke-width: 1.5;" width="239" x="0" y="223.5508"/><ellipse cx="88.25" cy="239.5508" fill="#ADD1B2" rx="11" ry="11" style="stroke: #A80036; stroke-width: 1.0;"/><path d="M92.3643,245.5508 L84.6445,245.5508 L84.6445,233.1577 L92.3643,233.1577 L92.3643,235.3159 L87.0933,235.3159 L87.0933,237.9888 L91.8662,237.9888 L91.8662,240.147 L87.0933,240.147 L87.0933,243.3926 L92.3643,243.3926 Z "/><text fill="#000000" font-family="sans-serif" font-size="12" lengthAdjust="spacingAndGlyphs" textLength="54" x="108.75" y="244.0859">Профиль</text><line style="stroke: #A80036; stroke-width: 1.5;" x1="1" x2="238" y1="255.5508" y2="255.5508"/><ellipse cx="11" cy="267.5283" fill="#000000" rx="3" ry="3" style="stroke: #000000; stroke-width: 1.0;"/><text fill="#000000" font-family="sans-serif" font-size="11" lengthAdjust="spacingAndGlyphs" textLength="151" x="20" y="270.1855">"Идентификатор" : "Строка"</text><line style="stroke: #A80036; stroke-width: 1.0;" x1="1" x2="238" y1="276.5059" y2="276.5059"/><text fill="#000000" font-family="sans-serif" font-size="11" lengthAdjust="spacingAndGlyphs" textLength="227" x="6" y="291.1406">"Идентификатор пользователя" : "Строка"</text><text fill="#000000" font-family="sans-serif" font-size="11" lengthAdjust="spacingAndGlyphs" textLength="86" x="6" y="304.0957">"Имя" : "Строка"</text><text fill="#000000" font-family="sans-serif" font-size="11" lengthAdjust="spacingAndGlyphs" textLength="112" x="6" y="317.0508">"Фамилия" : "Строка"</text><text fill="#000000" font-family="sans-serif" font-size="11" lengthAdjust="spacingAndGlyphs" textLength="114" x="6" y="330.0059">"Отчество" : "Строка"</text><text fill="#000000" font-family="sans-serif" font-size="11" lengthAdjust="spacingAndGlyphs" textLength="150" x="6" y="342.9609">"Версия" : "Целочисленный"</text><text fill="#000000" font-family="sans-serif" font-size="11" lengthAdjust="spacingAndGlyphs" textLength="169" x="6" y="355.916">"Флаг удаления" : "Логический"</text><text fill="#000000" font-family="sans-serif" font-size="11" lengthAdjust="spacingAndGlyphs" textLength="168" x="6" y="368.8711">"Дата создания" : "Дата/Время"</text><text fill="#000000" font-family="sans-serif" font-size="11" lengthAdjust="spacingAndGlyphs" textLength="183" x="6" y="381.8262">"Дата обновления" : "Дата/Время"</text><!--class app_project--><rect fill="#FEFECE" filter="url(#fncv162)" height="164.5957" style="stroke: #A80036; stroke-width: 1.5;" width="239" x="257" y="223.5508"/><ellipse cx="350.25" cy="239.5508" fill="#ADD1B2" rx="11" ry="11" style="stroke: #A80036; stroke-width: 1.0;"/><path d="M354.3643,245.5508 L346.6445,245.5508 L346.6445,233.1577 L354.3643,233.1577 L354.3643,235.3159 L349.0933,235.3159 L349.0933,237.9888 L353.8662,237.9888 L353.8662,240.147 L349.0933,240.147 L349.0933,243.3926 L354.3643,243.3926 Z "/><text fill="#000000" font-family="sans-serif" font-size="12" lengthAdjust="spacingAndGlyphs" textLength="44" x="370.75" y="244.0859">Проект</text><line style="stroke: #A80036; stroke-width: 1.5;" x1="258" x2="495" y1="255.5508" y2="255.5508"/><ellipse cx="268" cy="267.5283" fill="#000000" rx="3" ry="3" style="stroke: #000000; stroke-width: 1.0;"/><text fill="#000000" font-family="sans-serif" font-size="11" lengthAdjust="spacingAndGlyphs" textLength="151" x="277" y="270.1855">"Идентификатор" : "Строка"</text><line style="stroke: #A80036; stroke-width: 1.0;" x1="258" x2="495" y1="276.5059" y2="276.5059"/><text fill="#000000" font-family="sans-serif" font-size="11" lengthAdjust="spacingAndGlyphs" textLength="115" x="263" y="291.1406">"Название" : "Строка"</text><text fill="#000000" font-family="sans-serif" font-size="11" lengthAdjust="spacingAndGlyphs" textLength="119" x="263" y="304.0957">"Описание" : "Строка"</text><text fill="#000000" font-family="sans-serif" font-size="11" lengthAdjust="spacingAndGlyphs" textLength="227" x="263" y="317.0508">"Идентификатор пользователя" : "Строка"</text><text fill="#000000" font-family="sans-serif" font-size="11" lengthAdjust="spacingAndGlyphs" textLength="103" x="263" y="330.0059">"Статус" : "STATUS"</text><text fill="#000000" font-family="sans-serif" font-size="11" lengthAdjust="spacingAndGlyphs" textLength="150" x="263" y="342.9609">"Версия" : "Целочисленный"</text><text fill="#000000" font-family="sans-serif" font-size="11" lengthAdjust="spacingAndGlyphs" textLength="169" x="263" y="355.916">"Флаг удаления" : "Логический"</text><text fill="#000000" font-family="sans-serif" font-size="11" lengthAdjust="spacingAndGlyphs" textLength="168" x="263" y="368.8711">"Дата создания" : "Дата/Время"</text><text fill="#000000" font-family="sans-serif" font-size="11" lengthAdjust="spacingAndGlyphs" textLength="183" x="263" y="381.8262">"Дата обновления" : "Дата/Время"</text><!--class app_task--><rect fill="#FEFECE" filter="url(#fncv162)" height="177.5508" style="stroke: #A80036; stroke-width: 1.5;" width="239" x="331" y="9.5508"/><ellipse cx="425.75" cy="25.5508" fill="#ADD1B2" rx="11" ry="11" style="stroke: #A80036; stroke-width: 1.0;"/><path d="M429.8643,31.5508 L422.1445,31.5508 L422.1445,19.1577 L429.8643,19.1577 L429.8643,21.3159 L424.5933,21.3159 L424.5933,23.9888 L429.3662,23.9888 L429.3662,26.147 L424.5933,26.147 L424.5933,29.3926 L429.8643,29.3926 Z "/><text fill="#000000" font-family="sans-serif" font-size="12" lengthAdjust="spacingAndGlyphs" textLength="41" x="446.25" y="30.0859">Задача</text><line style="stroke: #A80036; stroke-width: 1.5;" x1="332" x2="569" y1="41.5508" y2="41.5508"/><ellipse cx="342" cy="53.5283" fill="#000000" rx="3" ry="3" style="stroke: #000000; stroke-width: 1.0;"/><text fill="#000000" font-family="sans-serif" font-size="11" lengthAdjust="spacingAndGlyphs" textLength="151" x="351" y="56.1855">"Идентификатор" : "Строка"</text><line style="stroke: #A80036; stroke-width: 1.0;" x1="332" x2="569" y1="62.5059" y2="62.5059"/><text fill="#000000" font-family="sans-serif" font-size="11" lengthAdjust="spacingAndGlyphs" textLength="115" x="337" y="77.1406">"Название" : "Строка"</text><text fill="#000000" font-family="sans-serif" font-size="11" lengthAdjust="spacingAndGlyphs" textLength="119" x="337" y="90.0957">"Описание" : "Строка"</text><text fill="#000000" font-family="sans-serif" font-size="11" lengthAdjust="spacingAndGlyphs" textLength="198" x="337" y="103.0508">"Идентификатор проекта" : "Строка"</text><text fill="#000000" font-family="sans-serif" font-size="11" lengthAdjust="spacingAndGlyphs" textLength="227" x="337" y="116.0059">"Идентификатор пользователя" : "Строка"</text><text fill="#000000" font-family="sans-serif" font-size="11" lengthAdjust="spacingAndGlyphs" textLength="103" x="337" y="128.9609">"Статус" : "STATUS"</text><text fill="#000000" font-family="sans-serif" font-size="11" lengthAdjust="spacingAndGlyphs" textLength="150" x="337" y="141.916">"Версия" : "Целочисленный"</text><text fill="#000000" font-family="sans-serif" font-size="11" lengthAdjust="spacingAndGlyphs" textLength="169" x="337" y="154.8711">"Флаг удаления" : "Логический"</text><text fill="#000000" font-family="sans-serif" font-size="11" lengthAdjust="spacingAndGlyphs" textLength="168" x="337" y="167.8262">"Дата создания" : "Дата/Время"</text><text fill="#000000" font-family="sans-serif" font-size="11" lengthAdjust="spacingAndGlyphs" textLength="183" x="337" y="180.7813">"Дата обновления" : "Дата/Время"</text><!--class app_user--><rect fill="#FEFECE" filter="url(#fncv162)" height="151.6406" style="stroke: #A80036; stroke-width: 1.5;" width="195" x="279" y="424.5508"/><ellipse cx="331.75" cy="440.5508" fill="#ADD1B2" rx="11" ry="11" style="stroke: #A80036; stroke-width: 1.0;"/><path d="M335.8643,446.5508 L328.1445,446.5508 L328.1445,434.1577 L335.8643,434.1577 L335.8643,436.3159 L330.5933,436.3159 L330.5933,438.9888 L335.3662,438.9888 L335.3662,441.147 L330.5933,441.147 L330.5933,444.3926 L335.8643,444.3926 Z "/><text fill="#000000" font-family="sans-serif" font-size="12" lengthAdjust="spacingAndGlyphs" textLength="81" x="352.25" y="445.0859">Пользователь</text><line style="stroke: #A80036; stroke-width: 1.5;" x1="280" x2="473" y1="456.5508" y2="456.5508"/><ellipse cx="290" cy="468.5283" fill="#000000" rx="3" ry="3" style="stroke: #000000; stroke-width: 1.0;"/><text fill="#000000" font-family="sans-serif" font-size="11" lengthAdjust="spacingAndGlyphs" textLength="74" x="299" y="471.1855">"id" : "Строка"</text><line style="stroke: #A80036; stroke-width: 1.0;" x1="280" x2="473" y1="477.5059" y2="477.5059"/><text fill="#000000" font-family="sans-serif" font-size="11" lengthAdjust="spacingAndGlyphs" textLength="162" x="285" y="492.1406">"Имя пользователя" : "Строка"</text><text fill="#000000" font-family="sans-serif" font-size="11" lengthAdjust="spacingAndGlyphs" textLength="128" x="285" y="505.0957">"Хеш пароля" : "Строка"</text><text fill="#000000" font-family="sans-serif" font-size="11" lengthAdjust="spacingAndGlyphs" textLength="98" x="285" y="518.0508">"E-mail" : "Строка"</text><text fill="#000000" font-family="sans-serif" font-size="11" lengthAdjust="spacingAndGlyphs" textLength="150" x="285" y="531.0059">"Версия" : "Целочисленный"</text><text fill="#000000" font-family="sans-serif" font-size="11" lengthAdjust="spacingAndGlyphs" textLength="169" x="285" y="543.9609">"Флаг удаления" : "Логический"</text><text fill="#000000" font-family="sans-serif" font-size="11" lengthAdjust="spacingAndGlyphs" textLength="168" x="285" y="556.916">"Дата создания" : "Дата/Время"</text><text fill="#000000" font-family="sans-serif" font-size="11" lengthAdjust="spacingAndGlyphs" textLength="183" x="285" y="569.8711">"Дата обновления" : "Дата/Время"</text><path d="M228.4911,388.6881 C245.1816,401.1897 262.3217,414.0281 278.7494,426.333 " fill="none" style="stroke: #A80036; stroke-width: 1.0;"/><path d="M376.5,388.6881 C376.5,400.5749 376.5,412.7661 376.5,424.5137 " fill="none" style="stroke: #A80036; stroke-width: 1.0;"/><path d="M418.7953,187.5956 C414.5194,199.4698 410.1472,211.6115 405.9135,223.3688 " fill="none" style="stroke: #A80036; stroke-width: 1.0;"/><path d="M493.4797,187.5986 C516.0297,246.6423 533.5365,324.9368 504.5,388.5508 C497.2328,404.472 486.4291,418.9886 474.1255,431.8934 " fill="none" style="stroke: #A80036; stroke-width: 1.0;"/></g></svg>