<?xml version="1.0" encoding="UTF-8" standalone="no"?><svg xmlns="http://www.w3.org/2000/svg" xmlns:xlink="http://www.w3.org/1999/xlink" contentScriptType="application/ecmascript" contentStyleType="text/css" height="585px" preserveAspectRatio="none" style="width:565px;height:585px;" version="1.1" viewBox="0 0 565 585" width="565px" zoomAndPan="magnify"><defs><filter height="300%" id="f553ytq" width="300%" x="-1" y="-1"><feGaussianBlur result="blurOut" stdDeviation="2.0"/><feColorMatrix in="blurOut" result="blurOut2" type="matrix" values="0 0 0 0 0 0 0 0 0 0 0 0 0 0 0 0 0 0 .4 0"/><feOffset dx="4.0" dy="4.0" in="blurOut2" result="blurOut3"/><feBlend in="SourceGraphic" in2="blurOut3" mode="normal"/></filter></defs><g><!--class app_profile--><rect fill="#FEFECE" filter="url(#f553ytq)" height="164.5957" style="stroke: #A80036; stroke-width: 1.5;" width="233" x="0" y="223.5508"/><ellipse cx="79.25" cy="239.5508" fill="#ADD1B2" rx="11" ry="11" style="stroke: #A80036; stroke-width: 1.0;"/><path d="M83.3643,245.5508 L75.6445,245.5508 L75.6445,233.1577 L83.3643,233.1577 L83.3643,235.3159 L78.0933,235.3159 L78.0933,237.9888 L82.8662,237.9888 L82.8662,240.147 L78.0933,240.147 L78.0933,243.3926 L83.3643,243.3926 Z "/><text fill="#000000" font-family="sans-serif" font-size="12" lengthAdjust="spacingAndGlyphs" textLength="66" x="99.75" y="244.0859">app_profile</text><line style="stroke: #A80036; stroke-width: 1.5;" x1="1" x2="232" y1="255.5508" y2="255.5508"/><ellipse cx="11" cy="267.5283" fill="#000000" rx="3" ry="3" style="stroke: #000000; stroke-width: 1.0;"/><text fill="#000000" font-family="sans-serif" font-size="11" lengthAdjust="spacingAndGlyphs" textLength="117" x="20" y="270.1855">"id" : "VARCHAR(255)"</text><line style="stroke: #A80036; stroke-width: 1.0;" x1="1" x2="232" y1="276.5059" y2="276.5059"/><text fill="#000000" font-family="sans-serif" font-size="11" lengthAdjust="spacingAndGlyphs" textLength="147" x="6" y="291.1406">"user_id" : "VARCHAR(255)"</text><text fill="#000000" font-family="sans-serif" font-size="11" lengthAdjust="spacingAndGlyphs" textLength="164" x="6" y="304.0957">"first_name" : "VARCHAR(255)"</text><text fill="#000000" font-family="sans-serif" font-size="11" lengthAdjust="spacingAndGlyphs" textLength="161" x="6" y="317.0508">"last_name" : "VARCHAR(255)"</text><text fill="#000000" font-family="sans-serif" font-size="11" lengthAdjust="spacingAndGlyphs" textLength="178" x="6" y="330.0059">"middle_name" : "VARCHAR(255)"</text><text fill="#000000" font-family="sans-serif" font-size="11" lengthAdjust="spacingAndGlyphs" textLength="110" x="6" y="342.9609">"version" : "INTEGER"</text><text fill="#000000" font-family="sans-serif" font-size="11" lengthAdjust="spacingAndGlyphs" textLength="131" x="6" y="355.916">"is_deleted" : "BOOLEAN"</text><text fill="#000000" font-family="sans-serif" font-size="11" lengthAdjust="spacingAndGlyphs" textLength="217" x="6" y="368.8711">"created" : "TIMESTAMP WITH TIME ZONE"</text><text fill="#000000" font-family="sans-serif" font-size="11" lengthAdjust="spacingAndGlyphs" textLength="221" x="6" y="381.8262">"updated" : "TIMESTAMP WITH TIME ZONE"</text><!--class app_project--><rect fill="#FEFECE" filter="url(#f553ytq)" height="164.5957" style="stroke: #A80036; stroke-width: 1.5;" width="233" x="251" y="223.5508"/><ellipse cx="328.25" cy="239.5508" fill="#ADD1B2" rx="11" ry="11" style="stroke: #A80036; stroke-width: 1.0;"/><path d="M332.3643,245.5508 L324.6445,245.5508 L324.6445,233.1577 L332.3643,233.1577 L332.3643,235.3159 L327.0933,235.3159 L327.0933,237.9888 L331.8662,237.9888 L331.8662,240.147 L327.0933,240.147 L327.0933,243.3926 L332.3643,243.3926 Z "/><text fill="#000000" font-family="sans-serif" font-size="12" lengthAdjust="spacingAndGlyphs" textLength="70" x="348.75" y="244.0859">app_project</text><line style="stroke: #A80036; stroke-width: 1.5;" x1="252" x2="483" y1="255.5508" y2="255.5508"/><ellipse cx="262" cy="267.5283" fill="#000000" rx="3" ry="3" style="stroke: #000000; stroke-width: 1.0;"/><text fill="#000000" font-family="sans-serif" font-size="11" lengthAdjust="spacingAndGlyphs" textLength="117" x="271" y="270.1855">"id" : "VARCHAR(255)"</text><line style="stroke: #A80036; stroke-width: 1.0;" x1="252" x2="483" y1="276.5059" y2="276.5059"/><text fill="#000000" font-family="sans-serif" font-size="11" lengthAdjust="spacingAndGlyphs" textLength="136" x="257" y="291.1406">"name" : "VARCHAR(255)"</text><text fill="#000000" font-family="sans-serif" font-size="11" lengthAdjust="spacingAndGlyphs" textLength="168" x="257" y="304.0957">"description" : "VARCHAR(255)"</text><text fill="#000000" font-family="sans-serif" font-size="11" lengthAdjust="spacingAndGlyphs" textLength="147" x="257" y="317.0508">"user_id" : "VARCHAR(255)"</text><text fill="#000000" font-family="sans-serif" font-size="11" lengthAdjust="spacingAndGlyphs" textLength="100" x="257" y="330.0059">"status" : "STATUS"</text><text fill="#000000" font-family="sans-serif" font-size="11" lengthAdjust="spacingAndGlyphs" textLength="110" x="257" y="342.9609">"version" : "INTEGER"</text><text fill="#000000" font-family="sans-serif" font-size="11" lengthAdjust="spacingAndGlyphs" textLength="131" x="257" y="355.916">"is_deleted" : "BOOLEAN"</text><text fill="#000000" font-family="sans-serif" font-size="11" lengthAdjust="spacingAndGlyphs" textLength="217" x="257" y="368.8711">"created" : "TIMESTAMP WITH TIME ZONE"</text><text fill="#000000" font-family="sans-serif" font-size="11" lengthAdjust="spacingAndGlyphs" textLength="221" x="257" y="381.8262">"updated" : "TIMESTAMP WITH TIME ZONE"</text><!--class app_task--><rect fill="#FEFECE" filter="url(#f553ytq)" height="177.5508" style="stroke: #A80036; stroke-width: 1.5;" width="233" x="323" y="9.5508"/><ellipse cx="408.75" cy="25.5508" fill="#ADD1B2" rx="11" ry="11" style="stroke: #A80036; stroke-width: 1.0;"/><path d="M412.8643,31.5508 L405.1445,31.5508 L405.1445,19.1577 L412.8643,19.1577 L412.8643,21.3159 L407.5933,21.3159 L407.5933,23.9888 L412.3662,23.9888 L412.3662,26.147 L407.5933,26.147 L407.5933,29.3926 L412.8643,29.3926 Z "/><text fill="#000000" font-family="sans-serif" font-size="12" lengthAdjust="spacingAndGlyphs" textLength="53" x="429.25" y="30.0859">app_task</text><line style="stroke: #A80036; stroke-width: 1.5;" x1="324" x2="555" y1="41.5508" y2="41.5508"/><ellipse cx="334" cy="53.5283" fill="#000000" rx="3" ry="3" style="stroke: #000000; stroke-width: 1.0;"/><text fill="#000000" font-family="sans-serif" font-size="11" lengthAdjust="spacingAndGlyphs" textLength="117" x="343" y="56.1855">"id" : "VARCHAR(255)"</text><line style="stroke: #A80036; stroke-width: 1.0;" x1="324" x2="555" y1="62.5059" y2="62.5059"/><text fill="#000000" font-family="sans-serif" font-size="11" lengthAdjust="spacingAndGlyphs" textLength="136" x="329" y="77.1406">"name" : "VARCHAR(255)"</text><text fill="#000000" font-family="sans-serif" font-size="11" lengthAdjust="spacingAndGlyphs" textLength="168" x="329" y="90.0957">"description" : "VARCHAR(255)"</text><text fill="#000000" font-family="sans-serif" font-size="11" lengthAdjust="spacingAndGlyphs" textLength="161" x="329" y="103.0508">"project_id" : "VARCHAR(255)"</text><text fill="#000000" font-family="sans-serif" font-size="11" lengthAdjust="spacingAndGlyphs" textLength="147" x="329" y="116.0059">"user_id" : "VARCHAR(255)"</text><text fill="#000000" font-family="sans-serif" font-size="11" lengthAdjust="spacingAndGlyphs" textLength="100" x="329" y="128.9609">"status" : "STATUS"</text><text fill="#000000" font-family="sans-serif" font-size="11" lengthAdjust="spacingAndGlyphs" textLength="110" x="329" y="141.916">"version" : "INTEGER"</text><text fill="#000000" font-family="sans-serif" font-size="11" lengthAdjust="spacingAndGlyphs" textLength="131" x="329" y="154.8711">"is_deleted" : "BOOLEAN"</text><text fill="#000000" font-family="sans-serif" font-size="11" lengthAdjust="spacingAndGlyphs" textLength="217" x="329" y="167.8262">"created" : "TIMESTAMP WITH TIME ZONE"</text><text fill="#000000" font-family="sans-serif" font-size="11" lengthAdjust="spacingAndGlyphs" textLength="221" x="329" y="180.7813">"updated" : "TIMESTAMP WITH TIME ZONE"</text><!--class app_user--><rect fill="#FEFECE" filter="url(#f553ytq)" height="151.6406" style="stroke: #A80036; stroke-width: 1.5;" width="233" x="251" y="424.5508"/><ellipse cx="336.25" cy="440.5508" fill="#ADD1B2" rx="11" ry="11" style="stroke: #A80036; stroke-width: 1.0;"/><path d="M340.3643,446.5508 L332.6445,446.5508 L332.6445,434.1577 L340.3643,434.1577 L340.3643,436.3159 L335.0933,436.3159 L335.0933,438.9888 L339.8662,438.9888 L339.8662,441.147 L335.0933,441.147 L335.0933,444.3926 L340.3643,444.3926 Z "/><text fill="#000000" font-family="sans-serif" font-size="12" lengthAdjust="spacingAndGlyphs" textLength="54" x="356.75" y="445.0859">app_user</text><line style="stroke: #A80036; stroke-width: 1.5;" x1="252" x2="483" y1="456.5508" y2="456.5508"/><ellipse cx="262" cy="468.5283" fill="#000000" rx="3" ry="3" style="stroke: #000000; stroke-width: 1.0;"/><text fill="#000000" font-family="sans-serif" font-size="11" lengthAdjust="spacingAndGlyphs" textLength="117" x="271" y="471.1855">"id" : "VARCHAR(255)"</text><line style="stroke: #A80036; stroke-width: 1.0;" x1="252" x2="483" y1="477.5059" y2="477.5059"/><text fill="#000000" font-family="sans-serif" font-size="11" lengthAdjust="spacingAndGlyphs" textLength="160" x="257" y="492.1406">"username" : "VARCHAR(255)"</text><text fill="#000000" font-family="sans-serif" font-size="11" lengthAdjust="spacingAndGlyphs" textLength="191" x="257" y="505.0957">"password_hash" : "VARCHAR(255)"</text><text fill="#000000" font-family="sans-serif" font-size="11" lengthAdjust="spacingAndGlyphs" textLength="135" x="257" y="518.0508">"email" : "VARCHAR(255)"</text><text fill="#000000" font-family="sans-serif" font-size="11" lengthAdjust="spacingAndGlyphs" textLength="110" x="257" y="531.0059">"version" : "INTEGER"</text><text fill="#000000" font-family="sans-serif" font-size="11" lengthAdjust="spacingAndGlyphs" textLength="131" x="257" y="543.9609">"is_deleted" : "BOOLEAN"</text><text fill="#000000" font-family="sans-serif" font-size="11" lengthAdjust="spacingAndGlyphs" textLength="217" x="257" y="556.916">"created" : "TIMESTAMP WITH TIME ZONE"</text><text fill="#000000" font-family="sans-serif" font-size="11" lengthAdjust="spacingAndGlyphs" textLength="221" x="257" y="569.8711">"updated" : "TIMESTAMP WITH TIME ZONE"</text><path d="M222.9466,388.6881 C238.4457,400.5749 254.3419,412.7661 269.6595,424.5137 " fill="none" style="stroke: #A80036; stroke-width: 1.0;"/><path d="M367.5,388.6881 C367.5,400.5749 367.5,412.7661 367.5,424.5137 " fill="none" style="stroke: #A80036; stroke-width: 1.0;"/><path d="M408.6522,187.5956 C404.4919,199.4698 400.2378,211.6115 396.1185,223.3688 " fill="none" style="stroke: #A80036; stroke-width: 1.0;"/><path d="M481.8994,187.8375 C504.0141,246.8071 521.092,324.9231 492.5,388.5508 C486.7305,401.39 478.6605,413.3485 469.3688,424.299 " fill="none" style="stroke: #A80036; stroke-width: 1.0;"/></g></svg>