<?xml version="1.0" encoding="UTF-8" standalone="no"?><svg xmlns="http://www.w3.org/2000/svg" xmlns:xlink="http://www.w3.org/1999/xlink" contentScriptType="application/ecmascript" contentStyleType="text/css" height="637px" preserveAspectRatio="none" style="width:565px;height:637px;" version="1.1" viewBox="0 0 565 637" width="565px" zoomAndPan="magnify"><defs><filter height="300%" id="fq3p3f3" width="300%" x="-1" y="-1"><feGaussianBlur result="blurOut" stdDeviation="2.0"/><feColorMatrix in="blurOut" result="blurOut2" type="matrix" values="0 0 0 0 0 0 0 0 0 0 0 0 0 0 0 0 0 0 .4 0"/><feOffset dx="4.0" dy="4.0" in="blurOut2" result="blurOut3"/><feBlend in="SourceGraphic" in2="blurOut3" mode="normal"/></filter></defs><g><!--class app_profile--><rect fill="#FEFECE" filter="url(#fq3p3f3)" height="190.5059" style="stroke: #A80036; stroke-width: 1.5;" width="233" x="0" y="236.5059"/><ellipse cx="79.25" cy="252.5059" fill="#ADD1B2" rx="11" ry="11" style="stroke: #A80036; stroke-width: 1.0;"/><path d="M83.3643,258.5059 L75.6445,258.5059 L75.6445,246.1128 L83.3643,246.1128 L83.3643,248.271 L78.0933,248.271 L78.0933,250.9438 L82.8662,250.9438 L82.8662,253.1021 L78.0933,253.1021 L78.0933,256.3477 L83.3643,256.3477 Z "/><text fill="#000000" font-family="sans-serif" font-size="12" lengthAdjust="spacingAndGlyphs" textLength="66" x="99.75" y="257.041">app_profile</text><line style="stroke: #A80036; stroke-width: 1.5;" x1="1" x2="232" y1="268.5059" y2="268.5059"/><ellipse cx="11" cy="280.4834" fill="#000000" rx="3" ry="3" style="stroke: #000000; stroke-width: 1.0;"/><text fill="#000000" font-family="sans-serif" font-size="11" lengthAdjust="spacingAndGlyphs" textLength="117" x="20" y="283.1406">"id" : "VARCHAR(255)"</text><line style="stroke: #A80036; stroke-width: 1.0;" x1="1" x2="232" y1="289.4609" y2="289.4609"/><text fill="#000000" font-family="sans-serif" font-size="11" lengthAdjust="spacingAndGlyphs" textLength="147" x="6" y="304.0957">"user_id" : "VARCHAR(255)"</text><text fill="#000000" font-family="sans-serif" font-size="11" lengthAdjust="spacingAndGlyphs" textLength="164" x="6" y="317.0508">"first_name" : "VARCHAR(255)"</text><text fill="#000000" font-family="sans-serif" font-size="11" lengthAdjust="spacingAndGlyphs" textLength="161" x="6" y="330.0059">"last_name" : "VARCHAR(255)"</text><text fill="#000000" font-family="sans-serif" font-size="11" lengthAdjust="spacingAndGlyphs" textLength="178" x="6" y="342.9609">"middle_name" : "VARCHAR(255)"</text><text fill="#000000" font-family="sans-serif" font-size="11" lengthAdjust="spacingAndGlyphs" textLength="110" x="6" y="355.916">"version" : "INTEGER"</text><text fill="#000000" font-family="sans-serif" font-size="11" lengthAdjust="spacingAndGlyphs" textLength="131" x="6" y="368.8711">"is_deleted" : "BOOLEAN"</text><text fill="#000000" font-family="sans-serif" font-size="11" lengthAdjust="spacingAndGlyphs" textLength="217" x="6" y="381.8262">"created" : "TIMESTAMP WITH TIME ZONE"</text><text fill="#000000" font-family="sans-serif" font-size="11" lengthAdjust="spacingAndGlyphs" textLength="221" x="6" y="394.7813">"updated" : "TIMESTAMP WITH TIME ZONE"</text><text fill="#000000" font-family="sans-serif" font-size="11" lengthAdjust="spacingAndGlyphs" textLength="216" x="6" y="407.7363">"deleted" : "TIMESTAMP WITH TIME ZONE"</text><text fill="#000000" font-family="sans-serif" font-size="11" lengthAdjust="spacingAndGlyphs" textLength="83" x="6" y="420.6914">"about" : "TEXT"</text><!--class app_project--><rect fill="#FEFECE" filter="url(#fq3p3f3)" height="177.5508" style="stroke: #A80036; stroke-width: 1.5;" width="233" x="251" y="243.0059"/><ellipse cx="328.25" cy="259.0059" fill="#ADD1B2" rx="11" ry="11" style="stroke: #A80036; stroke-width: 1.0;"/><path d="M332.3643,265.0059 L324.6445,265.0059 L324.6445,252.6128 L332.3643,252.6128 L332.3643,254.771 L327.0933,254.771 L327.0933,257.4438 L331.8662,257.4438 L331.8662,259.6021 L327.0933,259.6021 L327.0933,262.8477 L332.3643,262.8477 Z "/><text fill="#000000" font-family="sans-serif" font-size="12" lengthAdjust="spacingAndGlyphs" textLength="70" x="348.75" y="263.541">app_project</text><line style="stroke: #A80036; stroke-width: 1.5;" x1="252" x2="483" y1="275.0059" y2="275.0059"/><ellipse cx="262" cy="286.9834" fill="#000000" rx="3" ry="3" style="stroke: #000000; stroke-width: 1.0;"/><text fill="#000000" font-family="sans-serif" font-size="11" lengthAdjust="spacingAndGlyphs" textLength="117" x="271" y="289.6406">"id" : "VARCHAR(255)"</text><line style="stroke: #A80036; stroke-width: 1.0;" x1="252" x2="483" y1="295.9609" y2="295.9609"/><text fill="#000000" font-family="sans-serif" font-size="11" lengthAdjust="spacingAndGlyphs" textLength="136" x="257" y="310.5957">"name" : "VARCHAR(255)"</text><text fill="#000000" font-family="sans-serif" font-size="11" lengthAdjust="spacingAndGlyphs" textLength="168" x="257" y="323.5508">"description" : "VARCHAR(255)"</text><text fill="#000000" font-family="sans-serif" font-size="11" lengthAdjust="spacingAndGlyphs" textLength="147" x="257" y="336.5059">"user_id" : "VARCHAR(255)"</text><text fill="#000000" font-family="sans-serif" font-size="11" lengthAdjust="spacingAndGlyphs" textLength="100" x="257" y="349.4609">"status" : "STATUS"</text><text fill="#000000" font-family="sans-serif" font-size="11" lengthAdjust="spacingAndGlyphs" textLength="110" x="257" y="362.416">"version" : "INTEGER"</text><text fill="#000000" font-family="sans-serif" font-size="11" lengthAdjust="spacingAndGlyphs" textLength="131" x="257" y="375.3711">"is_deleted" : "BOOLEAN"</text><text fill="#000000" font-family="sans-serif" font-size="11" lengthAdjust="spacingAndGlyphs" textLength="217" x="257" y="388.3262">"created" : "TIMESTAMP WITH TIME ZONE"</text><text fill="#000000" font-family="sans-serif" font-size="11" lengthAdjust="spacingAndGlyphs" textLength="221" x="257" y="401.2813">"updated" : "TIMESTAMP WITH TIME ZONE"</text><text fill="#000000" font-family="sans-serif" font-size="11" lengthAdjust="spacingAndGlyphs" textLength="216" x="257" y="414.2363">"deleted" : "TIMESTAMP WITH TIME ZONE"</text><!--class app_task--><rect fill="#FEFECE" filter="url(#fq3p3f3)" height="190.5059" style="stroke: #A80036; stroke-width: 1.5;" width="233" x="323" y="9.5059"/><ellipse cx="408.75" cy="25.5059" fill="#ADD1B2" rx="11" ry="11" style="stroke: #A80036; stroke-width: 1.0;"/><path d="M412.8643,31.5059 L405.1445,31.5059 L405.1445,19.1128 L412.8643,19.1128 L412.8643,21.271 L407.5933,21.271 L407.5933,23.9438 L412.3662,23.9438 L412.3662,26.1021 L407.5933,26.1021 L407.5933,29.3477 L412.8643,29.3477 Z "/><text fill="#000000" font-family="sans-serif" font-size="12" lengthAdjust="spacingAndGlyphs" textLength="53" x="429.25" y="30.041">app_task</text><line style="stroke: #A80036; stroke-width: 1.5;" x1="324" x2="555" y1="41.5059" y2="41.5059"/><ellipse cx="334" cy="53.4834" fill="#000000" rx="3" ry="3" style="stroke: #000000; stroke-width: 1.0;"/><text fill="#000000" font-family="sans-serif" font-size="11" lengthAdjust="spacingAndGlyphs" textLength="117" x="343" y="56.1406">"id" : "VARCHAR(255)"</text><line style="stroke: #A80036; stroke-width: 1.0;" x1="324" x2="555" y1="62.4609" y2="62.4609"/><text fill="#000000" font-family="sans-serif" font-size="11" lengthAdjust="spacingAndGlyphs" textLength="136" x="329" y="77.0957">"name" : "VARCHAR(255)"</text><text fill="#000000" font-family="sans-serif" font-size="11" lengthAdjust="spacingAndGlyphs" textLength="168" x="329" y="90.0508">"description" : "VARCHAR(255)"</text><text fill="#000000" font-family="sans-serif" font-size="11" lengthAdjust="spacingAndGlyphs" textLength="161" x="329" y="103.0059">"project_id" : "VARCHAR(255)"</text><text fill="#000000" font-family="sans-serif" font-size="11" lengthAdjust="spacingAndGlyphs" textLength="147" x="329" y="115.9609">"user_id" : "VARCHAR(255)"</text><text fill="#000000" font-family="sans-serif" font-size="11" lengthAdjust="spacingAndGlyphs" textLength="100" x="329" y="128.916">"status" : "STATUS"</text><text fill="#000000" font-family="sans-serif" font-size="11" lengthAdjust="spacingAndGlyphs" textLength="110" x="329" y="141.8711">"version" : "INTEGER"</text><text fill="#000000" font-family="sans-serif" font-size="11" lengthAdjust="spacingAndGlyphs" textLength="131" x="329" y="154.8262">"is_deleted" : "BOOLEAN"</text><text fill="#000000" font-family="sans-serif" font-size="11" lengthAdjust="spacingAndGlyphs" textLength="217" x="329" y="167.7813">"created" : "TIMESTAMP WITH TIME ZONE"</text><text fill="#000000" font-family="sans-serif" font-size="11" lengthAdjust="spacingAndGlyphs" textLength="221" x="329" y="180.7363">"updated" : "TIMESTAMP WITH TIME ZONE"</text><text fill="#000000" font-family="sans-serif" font-size="11" lengthAdjust="spacingAndGlyphs" textLength="216" x="329" y="193.6914">"deleted" : "TIMESTAMP WITH TIME ZONE"</text><!--class app_user--><rect fill="#FEFECE" filter="url(#fq3p3f3)" height="164.5957" style="stroke: #A80036; stroke-width: 1.5;" width="233" x="251" y="463.5059"/><ellipse cx="336.25" cy="479.5059" fill="#ADD1B2" rx="11" ry="11" style="stroke: #A80036; stroke-width: 1.0;"/><path d="M340.3643,485.5059 L332.6445,485.5059 L332.6445,473.1128 L340.3643,473.1128 L340.3643,475.271 L335.0933,475.271 L335.0933,477.9438 L339.8662,477.9438 L339.8662,480.1021 L335.0933,480.1021 L335.0933,483.3477 L340.3643,483.3477 Z "/><text fill="#000000" font-family="sans-serif" font-size="12" lengthAdjust="spacingAndGlyphs" textLength="54" x="356.75" y="484.041">app_user</text><line style="stroke: #A80036; stroke-width: 1.5;" x1="252" x2="483" y1="495.5059" y2="495.5059"/><ellipse cx="262" cy="507.4834" fill="#000000" rx="3" ry="3" style="stroke: #000000; stroke-width: 1.0;"/><text fill="#000000" font-family="sans-serif" font-size="11" lengthAdjust="spacingAndGlyphs" textLength="117" x="271" y="510.1406">"id" : "VARCHAR(255)"</text><line style="stroke: #A80036; stroke-width: 1.0;" x1="252" x2="483" y1="516.4609" y2="516.4609"/><text fill="#000000" font-family="sans-serif" font-size="11" lengthAdjust="spacingAndGlyphs" textLength="160" x="257" y="531.0957">"username" : "VARCHAR(255)"</text><text fill="#000000" font-family="sans-serif" font-size="11" lengthAdjust="spacingAndGlyphs" textLength="191" x="257" y="544.0508">"password_hash" : "VARCHAR(255)"</text><text fill="#000000" font-family="sans-serif" font-size="11" lengthAdjust="spacingAndGlyphs" textLength="135" x="257" y="557.0059">"email" : "VARCHAR(255)"</text><text fill="#000000" font-family="sans-serif" font-size="11" lengthAdjust="spacingAndGlyphs" textLength="110" x="257" y="569.9609">"version" : "INTEGER"</text><text fill="#000000" font-family="sans-serif" font-size="11" lengthAdjust="spacingAndGlyphs" textLength="131" x="257" y="582.916">"is_deleted" : "BOOLEAN"</text><text fill="#000000" font-family="sans-serif" font-size="11" lengthAdjust="spacingAndGlyphs" textLength="217" x="257" y="595.8711">"created" : "TIMESTAMP WITH TIME ZONE"</text><text fill="#000000" font-family="sans-serif" font-size="11" lengthAdjust="spacingAndGlyphs" textLength="221" x="257" y="608.8262">"updated" : "TIMESTAMP WITH TIME ZONE"</text><text fill="#000000" font-family="sans-serif" font-size="11" lengthAdjust="spacingAndGlyphs" textLength="216" x="257" y="621.7813">"deleted" : "TIMESTAMP WITH TIME ZONE"</text><path d="M228.4197,427.5356 C242.5384,439.4606 256.8891,451.5815 270.7458,463.2852 " fill="none" style="stroke: #A80036; stroke-width: 1.0;"/><path d="M367.5,421.0712 C367.5,435.0641 367.5,449.4864 367.5,463.3242 " fill="none" style="stroke: #A80036; stroke-width: 1.0;"/><path d="M409.1742,200.774 C404.7161,214.7055 400.1389,229.0092 395.7255,242.8013 " fill="none" style="stroke: #A80036; stroke-width: 1.0;"/><path d="M482.1498,200.8598 C505.403,266.753 523.7103,355.3338 492.5,427.5059 C487.0029,440.2177 479.3786,452.1883 470.5812,463.2675 " fill="none" style="stroke: #A80036; stroke-width: 1.0;"/></g></svg>