<?xml version="1.0" encoding="UTF-8" standalone="no"?><svg xmlns="http://www.w3.org/2000/svg" xmlns:xlink="http://www.w3.org/1999/xlink" contentScriptType="application/ecmascript" contentStyleType="text/css" height="546px" preserveAspectRatio="none" style="width:565px;height:546px;" version="1.1" viewBox="0 0 565 546" width="565px" zoomAndPan="magnify"><defs><filter height="300%" id="f8eucmi" width="300%" x="-1" y="-1"><feGaussianBlur result="blurOut" stdDeviation="2.0"/><feColorMatrix in="blurOut" result="blurOut2" type="matrix" values="0 0 0 0 0 0 0 0 0 0 0 0 0 0 0 0 0 0 .4 0"/><feOffset dx="4.0" dy="4.0" in="blurOut2" result="blurOut3"/><feBlend in="SourceGraphic" in2="blurOut3" mode="normal"/></filter></defs><g><!--class app_profile--><rect fill="#FEFECE" filter="url(#f8eucmi)" height="151.6406" style="stroke: #A80036; stroke-width: 1.5;" width="233" x="0" y="210.5957"/><ellipse cx="79.25" cy="226.5957" fill="#ADD1B2" rx="11" ry="11" style="stroke: #A80036; stroke-width: 1.0;"/><path d="M83.3643,232.5957 L75.6445,232.5957 L75.6445,220.2026 L83.3643,220.2026 L83.3643,222.3608 L78.0933,222.3608 L78.0933,225.0337 L82.8662,225.0337 L82.8662,227.1919 L78.0933,227.1919 L78.0933,230.4375 L83.3643,230.4375 Z "/><text fill="#000000" font-family="sans-serif" font-size="12" lengthAdjust="spacingAndGlyphs" textLength="66" x="99.75" y="231.1309">app_profile</text><line style="stroke: #A80036; stroke-width: 1.5;" x1="1" x2="232" y1="242.5957" y2="242.5957"/><ellipse cx="11" cy="254.5732" fill="#000000" rx="3" ry="3" style="stroke: #000000; stroke-width: 1.0;"/><text fill="#000000" font-family="sans-serif" font-size="11" lengthAdjust="spacingAndGlyphs" textLength="117" x="20" y="257.2305">"id" : "VARCHAR(255)"</text><line style="stroke: #A80036; stroke-width: 1.0;" x1="1" x2="232" y1="263.5508" y2="263.5508"/><text fill="#000000" font-family="sans-serif" font-size="11" lengthAdjust="spacingAndGlyphs" textLength="147" x="6" y="278.1855">"user_id" : "VARCHAR(255)"</text><text fill="#000000" font-family="sans-serif" font-size="11" lengthAdjust="spacingAndGlyphs" textLength="164" x="6" y="291.1406">"first_name" : "VARCHAR(255)"</text><text fill="#000000" font-family="sans-serif" font-size="11" lengthAdjust="spacingAndGlyphs" textLength="161" x="6" y="304.0957">"last_name" : "VARCHAR(255)"</text><text fill="#000000" font-family="sans-serif" font-size="11" lengthAdjust="spacingAndGlyphs" textLength="178" x="6" y="317.0508">"middle_name" : "VARCHAR(255)"</text><text fill="#000000" font-family="sans-serif" font-size="11" lengthAdjust="spacingAndGlyphs" textLength="110" x="6" y="330.0059">"version" : "INTEGER"</text><text fill="#000000" font-family="sans-serif" font-size="11" lengthAdjust="spacingAndGlyphs" textLength="217" x="6" y="342.9609">"created" : "TIMESTAMP WITH TIME ZONE"</text><text fill="#000000" font-family="sans-serif" font-size="11" lengthAdjust="spacingAndGlyphs" textLength="221" x="6" y="355.916">"updated" : "TIMESTAMP WITH TIME ZONE"</text><!--class app_project--><rect fill="#FEFECE" filter="url(#f8eucmi)" height="151.6406" style="stroke: #A80036; stroke-width: 1.5;" width="233" x="251" y="210.5957"/><ellipse cx="328.25" cy="226.5957" fill="#ADD1B2" rx="11" ry="11" style="stroke: #A80036; stroke-width: 1.0;"/><path d="M332.3643,232.5957 L324.6445,232.5957 L324.6445,220.2026 L332.3643,220.2026 L332.3643,222.3608 L327.0933,222.3608 L327.0933,225.0337 L331.8662,225.0337 L331.8662,227.1919 L327.0933,227.1919 L327.0933,230.4375 L332.3643,230.4375 Z "/><text fill="#000000" font-family="sans-serif" font-size="12" lengthAdjust="spacingAndGlyphs" textLength="70" x="348.75" y="231.1309">app_project</text><line style="stroke: #A80036; stroke-width: 1.5;" x1="252" x2="483" y1="242.5957" y2="242.5957"/><ellipse cx="262" cy="254.5732" fill="#000000" rx="3" ry="3" style="stroke: #000000; stroke-width: 1.0;"/><text fill="#000000" font-family="sans-serif" font-size="11" lengthAdjust="spacingAndGlyphs" textLength="117" x="271" y="257.2305">"id" : "VARCHAR(255)"</text><line style="stroke: #A80036; stroke-width: 1.0;" x1="252" x2="483" y1="263.5508" y2="263.5508"/><text fill="#000000" font-family="sans-serif" font-size="11" lengthAdjust="spacingAndGlyphs" textLength="136" x="257" y="278.1855">"name" : "VARCHAR(255)"</text><text fill="#000000" font-family="sans-serif" font-size="11" lengthAdjust="spacingAndGlyphs" textLength="168" x="257" y="291.1406">"description" : "VARCHAR(255)"</text><text fill="#000000" font-family="sans-serif" font-size="11" lengthAdjust="spacingAndGlyphs" textLength="147" x="257" y="304.0957">"user_id" : "VARCHAR(255)"</text><text fill="#000000" font-family="sans-serif" font-size="11" lengthAdjust="spacingAndGlyphs" textLength="100" x="257" y="317.0508">"status" : "STATUS"</text><text fill="#000000" font-family="sans-serif" font-size="11" lengthAdjust="spacingAndGlyphs" textLength="110" x="257" y="330.0059">"version" : "INTEGER"</text><text fill="#000000" font-family="sans-serif" font-size="11" lengthAdjust="spacingAndGlyphs" textLength="217" x="257" y="342.9609">"created" : "TIMESTAMP WITH TIME ZONE"</text><text fill="#000000" font-family="sans-serif" font-size="11" lengthAdjust="spacingAndGlyphs" textLength="221" x="257" y="355.916">"updated" : "TIMESTAMP WITH TIME ZONE"</text><!--class app_task--><rect fill="#FEFECE" filter="url(#f8eucmi)" height="164.5957" style="stroke: #A80036; stroke-width: 1.5;" width="233" x="323" y="9.5957"/><ellipse cx="408.75" cy="25.5957" fill="#ADD1B2" rx="11" ry="11" style="stroke: #A80036; stroke-width: 1.0;"/><path d="M412.8643,31.5957 L405.1445,31.5957 L405.1445,19.2026 L412.8643,19.2026 L412.8643,21.3608 L407.5933,21.3608 L407.5933,24.0337 L412.3662,24.0337 L412.3662,26.1919 L407.5933,26.1919 L407.5933,29.4375 L412.8643,29.4375 Z "/><text fill="#000000" font-family="sans-serif" font-size="12" lengthAdjust="spacingAndGlyphs" textLength="53" x="429.25" y="30.1309">app_task</text><line style="stroke: #A80036; stroke-width: 1.5;" x1="324" x2="555" y1="41.5957" y2="41.5957"/><ellipse cx="334" cy="53.5732" fill="#000000" rx="3" ry="3" style="stroke: #000000; stroke-width: 1.0;"/><text fill="#000000" font-family="sans-serif" font-size="11" lengthAdjust="spacingAndGlyphs" textLength="117" x="343" y="56.2305">"id" : "VARCHAR(255)"</text><line style="stroke: #A80036; stroke-width: 1.0;" x1="324" x2="555" y1="62.5508" y2="62.5508"/><text fill="#000000" font-family="sans-serif" font-size="11" lengthAdjust="spacingAndGlyphs" textLength="136" x="329" y="77.1855">"name" : "VARCHAR(255)"</text><text fill="#000000" font-family="sans-serif" font-size="11" lengthAdjust="spacingAndGlyphs" textLength="168" x="329" y="90.1406">"description" : "VARCHAR(255)"</text><text fill="#000000" font-family="sans-serif" font-size="11" lengthAdjust="spacingAndGlyphs" textLength="161" x="329" y="103.0957">"project_id" : "VARCHAR(255)"</text><text fill="#000000" font-family="sans-serif" font-size="11" lengthAdjust="spacingAndGlyphs" textLength="147" x="329" y="116.0508">"user_id" : "VARCHAR(255)"</text><text fill="#000000" font-family="sans-serif" font-size="11" lengthAdjust="spacingAndGlyphs" textLength="100" x="329" y="129.0059">"status" : "STATUS"</text><text fill="#000000" font-family="sans-serif" font-size="11" lengthAdjust="spacingAndGlyphs" textLength="110" x="329" y="141.9609">"version" : "INTEGER"</text><text fill="#000000" font-family="sans-serif" font-size="11" lengthAdjust="spacingAndGlyphs" textLength="217" x="329" y="154.916">"created" : "TIMESTAMP WITH TIME ZONE"</text><text fill="#000000" font-family="sans-serif" font-size="11" lengthAdjust="spacingAndGlyphs" textLength="221" x="329" y="167.8711">"updated" : "TIMESTAMP WITH TIME ZONE"</text><!--class app_user--><rect fill="#FEFECE" filter="url(#f8eucmi)" height="138.6855" style="stroke: #A80036; stroke-width: 1.5;" width="233" x="251" y="398.5957"/><ellipse cx="336.25" cy="414.5957" fill="#ADD1B2" rx="11" ry="11" style="stroke: #A80036; stroke-width: 1.0;"/><path d="M340.3643,420.5957 L332.6445,420.5957 L332.6445,408.2026 L340.3643,408.2026 L340.3643,410.3608 L335.0933,410.3608 L335.0933,413.0337 L339.8662,413.0337 L339.8662,415.1919 L335.0933,415.1919 L335.0933,418.4375 L340.3643,418.4375 Z "/><text fill="#000000" font-family="sans-serif" font-size="12" lengthAdjust="spacingAndGlyphs" textLength="54" x="356.75" y="419.1309">app_user</text><line style="stroke: #A80036; stroke-width: 1.5;" x1="252" x2="483" y1="430.5957" y2="430.5957"/><ellipse cx="262" cy="442.5732" fill="#000000" rx="3" ry="3" style="stroke: #000000; stroke-width: 1.0;"/><text fill="#000000" font-family="sans-serif" font-size="11" lengthAdjust="spacingAndGlyphs" textLength="117" x="271" y="445.2305">"id" : "VARCHAR(255)"</text><line style="stroke: #A80036; stroke-width: 1.0;" x1="252" x2="483" y1="451.5508" y2="451.5508"/><text fill="#000000" font-family="sans-serif" font-size="11" lengthAdjust="spacingAndGlyphs" textLength="160" x="257" y="466.1855">"username" : "VARCHAR(255)"</text><text fill="#000000" font-family="sans-serif" font-size="11" lengthAdjust="spacingAndGlyphs" textLength="191" x="257" y="479.1406">"password_hash" : "VARCHAR(255)"</text><text fill="#000000" font-family="sans-serif" font-size="11" lengthAdjust="spacingAndGlyphs" textLength="135" x="257" y="492.0957">"email" : "VARCHAR(255)"</text><text fill="#000000" font-family="sans-serif" font-size="11" lengthAdjust="spacingAndGlyphs" textLength="110" x="257" y="505.0508">"version" : "INTEGER"</text><text fill="#000000" font-family="sans-serif" font-size="11" lengthAdjust="spacingAndGlyphs" textLength="217" x="257" y="518.0059">"created" : "TIMESTAMP WITH TIME ZONE"</text><text fill="#000000" font-family="sans-serif" font-size="11" lengthAdjust="spacingAndGlyphs" textLength="221" x="257" y="530.9609">"updated" : "TIMESTAMP WITH TIME ZONE"</text><path d="M221.4923,362.6798 C238.0157,374.4964 255.0266,386.6616 271.3372,398.3259 " fill="none" style="stroke: #A80036; stroke-width: 1.0;"/><path d="M367.5,362.6798 C367.5,374.4964 367.5,386.6616 367.5,398.3259 " fill="none" style="stroke: #A80036; stroke-width: 1.0;"/><path d="M408.9655,174.733 C404.5195,186.6198 399.9597,198.8111 395.5658,210.5586 " fill="none" style="stroke: #A80036; stroke-width: 1.0;"/><path d="M480.9017,174.6907 C502.9132,229.8593 520.2635,303.198 492.5,362.5957 C486.3915,375.6644 477.7558,387.6734 467.8423,398.5264 " fill="none" style="stroke: #A80036; stroke-width: 1.0;"/></g></svg>