<?xml version="1.0" encoding="UTF-8" standalone="no"?><svg xmlns="http://www.w3.org/2000/svg" xmlns:xlink="http://www.w3.org/1999/xlink" contentScriptType="application/ecmascript" contentStyleType="text/css" height="546px" preserveAspectRatio="none" style="width:352px;height:546px;" version="1.1" viewBox="0 0 352 546" width="352px" zoomAndPan="magnify"><defs><filter height="300%" id="fp9pmwo" width="300%" x="-1" y="-1"><feGaussianBlur result="blurOut" stdDeviation="2.0"/><feColorMatrix in="blurOut" result="blurOut2" type="matrix" values="0 0 0 0 0 0 0 0 0 0 0 0 0 0 0 0 0 0 .4 0"/><feOffset dx="4.0" dy="4.0" in="blurOut2" result="blurOut3"/><feBlend in="SourceGraphic" in2="blurOut3" mode="normal"/></filter></defs><g><!--class app_project--><rect fill="#FEFECE" filter="url(#fp9pmwo)" height="138.6855" style="stroke: #A80036; stroke-width: 1.5;" width="143" x="0" y="197.6406"/><ellipse cx="33.45" cy="213.6406" fill="#ADD1B2" rx="11" ry="11" style="stroke: #A80036; stroke-width: 1.0;"/><path d="M37.5643,219.6406 L29.8445,219.6406 L29.8445,207.2476 L37.5643,207.2476 L37.5643,209.4058 L32.2933,209.4058 L32.2933,212.0786 L37.0662,212.0786 L37.0662,214.2368 L32.2933,214.2368 L32.2933,217.4824 L37.5643,217.4824 Z "/><text fill="#000000" font-family="sans-serif" font-size="12" lengthAdjust="spacingAndGlyphs" textLength="70" x="51.55" y="218.1758">app_project</text><line style="stroke: #A80036; stroke-width: 1.5;" x1="1" x2="142" y1="229.6406" y2="229.6406"/><ellipse cx="11" cy="241.6182" fill="#000000" rx="3" ry="3" style="stroke: #000000; stroke-width: 1.0;"/><text fill="#000000" font-family="sans-serif" font-size="11" lengthAdjust="spacingAndGlyphs" textLength="98" x="20" y="244.2754">"id" : "varchar(64)"</text><line style="stroke: #A80036; stroke-width: 1.0;" x1="1" x2="142" y1="250.5957" y2="250.5957"/><text fill="#000000" font-family="sans-serif" font-size="11" lengthAdjust="spacingAndGlyphs" textLength="75" x="6" y="265.2305">"name" : "text"</text><text fill="#000000" font-family="sans-serif" font-size="11" lengthAdjust="spacingAndGlyphs" textLength="107" x="6" y="278.1855">"description" : "text"</text><text fill="#000000" font-family="sans-serif" font-size="11" lengthAdjust="spacingAndGlyphs" textLength="108" x="6" y="291.1406">"status_type" : "text"</text><text fill="#000000" font-family="sans-serif" font-size="11" lengthAdjust="spacingAndGlyphs" textLength="128" x="6" y="304.0957">"user_id" : "varchar(64)"</text><text fill="#000000" font-family="sans-serif" font-size="11" lengthAdjust="spacingAndGlyphs" textLength="127" x="6" y="317.0508">"created" : "timestampz"</text><text fill="#000000" font-family="sans-serif" font-size="11" lengthAdjust="spacingAndGlyphs" textLength="131" x="6" y="330.0059">"updated" : "timestampz"</text><!--class app_task--><rect fill="#FEFECE" filter="url(#fp9pmwo)" height="151.6406" style="stroke: #A80036; stroke-width: 1.5;" width="154" x="44.5" y="9.6406"/><ellipse cx="90.75" cy="25.6406" fill="#ADD1B2" rx="11" ry="11" style="stroke: #A80036; stroke-width: 1.0;"/><path d="M94.8643,31.6406 L87.1445,31.6406 L87.1445,19.2476 L94.8643,19.2476 L94.8643,21.4058 L89.5933,21.4058 L89.5933,24.0786 L94.3662,24.0786 L94.3662,26.2368 L89.5933,26.2368 L89.5933,29.4824 L94.8643,29.4824 Z "/><text fill="#000000" font-family="sans-serif" font-size="12" lengthAdjust="spacingAndGlyphs" textLength="53" x="111.25" y="30.1758">app_task</text><line style="stroke: #A80036; stroke-width: 1.5;" x1="45.5" x2="197.5" y1="41.6406" y2="41.6406"/><ellipse cx="55.5" cy="53.6182" fill="#000000" rx="3" ry="3" style="stroke: #000000; stroke-width: 1.0;"/><text fill="#000000" font-family="sans-serif" font-size="11" lengthAdjust="spacingAndGlyphs" textLength="98" x="64.5" y="56.2754">"id" : "varchar(64)"</text><line style="stroke: #A80036; stroke-width: 1.0;" x1="45.5" x2="197.5" y1="62.5957" y2="62.5957"/><text fill="#000000" font-family="sans-serif" font-size="11" lengthAdjust="spacingAndGlyphs" textLength="75" x="50.5" y="77.2305">"name" : "text"</text><text fill="#000000" font-family="sans-serif" font-size="11" lengthAdjust="spacingAndGlyphs" textLength="107" x="50.5" y="90.1855">"description" : "text"</text><text fill="#000000" font-family="sans-serif" font-size="11" lengthAdjust="spacingAndGlyphs" textLength="108" x="50.5" y="103.1406">"status_type" : "text"</text><text fill="#000000" font-family="sans-serif" font-size="11" lengthAdjust="spacingAndGlyphs" textLength="142" x="50.5" y="116.0957">"project_id" : "varchar(64)"</text><text fill="#000000" font-family="sans-serif" font-size="11" lengthAdjust="spacingAndGlyphs" textLength="128" x="50.5" y="129.0508">"user_id" : "varchar(64)"</text><text fill="#000000" font-family="sans-serif" font-size="11" lengthAdjust="spacingAndGlyphs" textLength="127" x="50.5" y="142.0059">"created" : "timestampz"</text><text fill="#000000" font-family="sans-serif" font-size="11" lengthAdjust="spacingAndGlyphs" textLength="131" x="50.5" y="154.9609">"updated" : "timestampz"</text><!--class app_user--><rect fill="#FEFECE" filter="url(#fp9pmwo)" height="164.5957" style="stroke: #A80036; stroke-width: 1.5;" width="143" x="100" y="372.6406"/><ellipse cx="140.65" cy="388.6406" fill="#ADD1B2" rx="11" ry="11" style="stroke: #A80036; stroke-width: 1.0;"/><path d="M144.7643,394.6406 L137.0445,394.6406 L137.0445,382.2476 L144.7643,382.2476 L144.7643,384.4058 L139.4933,384.4058 L139.4933,387.0786 L144.2662,387.0786 L144.2662,389.2368 L139.4933,389.2368 L139.4933,392.4824 L144.7643,392.4824 Z "/><text fill="#000000" font-family="sans-serif" font-size="12" lengthAdjust="spacingAndGlyphs" textLength="54" x="160.35" y="393.1758">app_user</text><line style="stroke: #A80036; stroke-width: 1.5;" x1="101" x2="242" y1="404.6406" y2="404.6406"/><ellipse cx="111" cy="416.6182" fill="#000000" rx="3" ry="3" style="stroke: #000000; stroke-width: 1.0;"/><text fill="#000000" font-family="sans-serif" font-size="11" lengthAdjust="spacingAndGlyphs" textLength="98" x="120" y="419.2754">"id" : "varchar(64)"</text><line style="stroke: #A80036; stroke-width: 1.0;" x1="101" x2="242" y1="425.5957" y2="425.5957"/><text fill="#000000" font-family="sans-serif" font-size="11" lengthAdjust="spacingAndGlyphs" textLength="99" x="106" y="440.2305">"username" : "text"</text><text fill="#000000" font-family="sans-serif" font-size="11" lengthAdjust="spacingAndGlyphs" textLength="74" x="106" y="453.1855">"email" : "text"</text><text fill="#000000" font-family="sans-serif" font-size="11" lengthAdjust="spacingAndGlyphs" textLength="130" x="106" y="466.1406">"password_рash" : "text"</text><text fill="#000000" font-family="sans-serif" font-size="11" lengthAdjust="spacingAndGlyphs" textLength="103" x="106" y="479.0957">"first_name" : "text"</text><text fill="#000000" font-family="sans-serif" font-size="11" lengthAdjust="spacingAndGlyphs" textLength="100" x="106" y="492.0508">"last_name" : "text"</text><text fill="#000000" font-family="sans-serif" font-size="11" lengthAdjust="spacingAndGlyphs" textLength="117" x="106" y="505.0059">"middle_name" : "text"</text><text fill="#000000" font-family="sans-serif" font-size="11" lengthAdjust="spacingAndGlyphs" textLength="127" x="106" y="517.9609">"created" : "timestampz"</text><text fill="#000000" font-family="sans-serif" font-size="11" lengthAdjust="spacingAndGlyphs" textLength="131" x="106" y="530.916">"updated" : "timestampz"</text><!--class app_role--><rect fill="#FEFECE" filter="url(#fp9pmwo)" height="112.7754" style="stroke: #A80036; stroke-width: 1.5;" width="143" x="200" y="210.6406"/><ellipse cx="242" cy="226.6406" fill="#ADD1B2" rx="11" ry="11" style="stroke: #A80036; stroke-width: 1.0;"/><path d="M246.1143,232.6406 L238.3945,232.6406 L238.3945,220.2476 L246.1143,220.2476 L246.1143,222.4058 L240.8433,222.4058 L240.8433,225.0786 L245.6162,225.0786 L245.6162,227.2368 L240.8433,227.2368 L240.8433,230.4824 L246.1143,230.4824 Z "/><text fill="#000000" font-family="sans-serif" font-size="12" lengthAdjust="spacingAndGlyphs" textLength="51" x="262" y="231.1758">app_role</text><line style="stroke: #A80036; stroke-width: 1.5;" x1="201" x2="342" y1="242.6406" y2="242.6406"/><ellipse cx="211" cy="254.6182" fill="#000000" rx="3" ry="3" style="stroke: #000000; stroke-width: 1.0;"/><text fill="#000000" font-family="sans-serif" font-size="11" lengthAdjust="spacingAndGlyphs" textLength="98" x="220" y="257.2754">"id" : "varchar(64)"</text><line style="stroke: #A80036; stroke-width: 1.0;" x1="201" x2="342" y1="263.5957" y2="263.5957"/><text fill="#000000" font-family="sans-serif" font-size="11" lengthAdjust="spacingAndGlyphs" textLength="128" x="206" y="278.2305">"user_id" : "varchar(64)"</text><text fill="#000000" font-family="sans-serif" font-size="11" lengthAdjust="spacingAndGlyphs" textLength="99" x="206" y="291.1855">"user_type" : "text"</text><text fill="#000000" font-family="sans-serif" font-size="11" lengthAdjust="spacingAndGlyphs" textLength="127" x="206" y="304.1406">"created" : "timestampz"</text><text fill="#000000" font-family="sans-serif" font-size="11" lengthAdjust="spacingAndGlyphs" textLength="131" x="206" y="317.0957">"updated" : "timestampz"</text><path d="M108.4522,336.8717 C114.6836,348.4621 121.2056,360.5931 127.5931,372.4737 " fill="none" style="stroke: #A80036; stroke-width: 1.0;"/><path d="M100.5852,161.7247 C97.2937,173.5413 93.9051,185.7065 90.6559,197.3708 " fill="none" style="stroke: #A80036; stroke-width: 1.0;"/><path d="M143.8213,161.7512 C146.7786,173.6761 149.4801,185.9361 151.5,197.6406 C161.5076,255.6314 166.5117,321.8699 169.0117,372.507 " fill="none" style="stroke: #A80036; stroke-width: 1.0;"/><path d="M241.6322,323.6948 C233.4022,339.0025 224.2987,355.9351 215.4515,372.3907 " fill="none" style="stroke: #A80036; stroke-width: 1.0;"/></g></svg>